<svg width="466" height="445" viewBox="0 0 466 445" fill="#38bdf8" xmlns="http://www.w3.org/2000/svg">
<path d="M226.5 0.5H226.75H237.25H237.5V1.5C237.75 1.5 238.333 1.5 239.25 1.5H239.5V2.5H241.5V3.5H242.5V4.5H244.5V6.5H245.5V7.5H246.5V8.5H247.5V8.75V11.25V11.5H248.5V12.5H249.5V13.5C249.75 13.5 250.333 13.5 251.25 13.5H251.5V14.5H253.5V13.5H254.5V14.5H254.75H291.25H291.5V15.5H291.75H302.25H302.5V16.5H302.75H308.25H308.5V17.5H308.75H313.25H313.5V18.5H313.75H319.25H319.5V19.5H321.5V20.5H321.75H326.25H326.5V21.5H326.75H329.25H329.5V22.5H329.75H332.25H332.5V23.5H332.75H335.25H335.5V24.5H335.75H338.25H338.5V25.5H338.75H341.25H341.5V26.5H342.5V27.5H342.75H345.25H345.5V28.5H347.5V29.5H349.5V30.5H349.75H352.25H352.5V31.5H354.5V32.5H355.5V33.5H355.75H358.25H358.5V34.5H359.5V35.5H361.5V36.5H361.75H364.25H364.5V37.5H365.5V38.5H366.5V39.5H367.5V40.5H369.5V41.5H370.5V42.5H371.5V43.5H372.5V44.5H373.5V45.5H373.75H376.25H376.5V47.5H377.5V48.5H379.5V49.5H380.5V50.5H381.5V51.5H382.5V52.5H384.5V53.5H385.5V54.5H386.5V55.5H387.5V56.5H388.5V58.5H389.5V59.5H390.5V60.5H391.5V61.5H392.5V62.5H393.5V63.5H394.5V64.5H395.5V65.5H396.5V66.5H397.5V68.5H398.5V69.5H400.5V69.75V72.25V72.5H401.5V73.5H402.5V75.5H403.5V76.5H404.5V78.5H405.5V79.5H406.5V81.5H407.5V82.5H408.5V83.5H409.5V83.75V86.25V86.5H410.5V87.5H411.5V87.75V90.25V90.5H412.5V91.5H413.5V93.5H414.5V95.5H415.5C415.5 95.75 415.5 96.3333 415.5 97.25V97.5H416.5V99.5H417.5V100.5H418.5V100.75V103.25V103.5H419.5V105.5H420.5V107.5H421.5V109.5H422.5V109.75V112.25V112.5H423.5V114.5H424.5V114.75V119.25V119.5H425.5V121.5H426.5V121.75V127.25V127.5H427.5V127.75V132.25V132.5H428.5V133.5H427.5V134.5H428.5V134.75V147.25V147.5H427.5V147.75V154.25V154.5H426.5V154.75V159.25V159.5H425.5V159.75V163.25V163.5H424.5V163.75V171.25V171.5H423.5V171.75V178.25V178.5H422.5V178.75V188.25V188.5H423.5V189.5H424.5V189.75V194.25V194.5H425.5V195.5H426.5V197.5H427.5V198.5H428.5V200.5H429.5V201.5H430.5V201.75V204.25V204.5H431.5V205.5H432.5V206.5H433.5V208.5H434.5V209.5H435.5V211.5H436.5V212.5H437.5V213.5H438.5V215.5H439.5V216.5H440.5V217.5H441.5V218.5H442.5V220.5H443.5V221.5H444.5V222.5H445.5V224.5H446.5V225.5H447.5V226.5H448.5V227.5H449.5V228.5H450.5V229.5H451.5V231.5H452.5V232.5H454.5V233.5H455.5V235.5H456.5V236.5H457.5V237.5H458.5V238.5H459.5V240.5H460.5V242.5H461.5V244.5H462.5V246.5H463.5V248.5H464.5V248.75V251.25V251.5H465.5V251.75V254.25V254.5H464.5V254.75V258.25V258.5H463.5V260.5H462.5V261.5H461.5V262.5H460.5V263.5H459.5V264.5H457.5V265.5H455.5V266.5H453.5V267.5H451.5V268.5C451.25 268.5 450.667 268.5 449.75 268.5H449.5V269.5H447.5V270.5H446.5V271.5H446.25H443.75H443.5V272.5H442.5V273.5H441.5V274.5H440.5V275.5H439.5V275.75V279.25V279.5H440.5V281.5H441.5V281.75V284.25V284.5H442.5V284.75V288.25V288.5H443.5V288.75V300.25V300.5H442.5V302.5H441.5V303.5H440.5V305.5H439.5V306.5H438.5V307.5H437.5V307.75V310.25V310.5H438.5V310.75V313.25V313.5H439.5V313.75V321.25V321.5H438.5V321.75V324.25V324.5H437.5C437.5 324.75 437.5 325.333 437.5 326.25V326.5H436.5V328.5H435.5V329.5H434.5V330.5H432.5V331.5H431.5V332.5H430.5V333.5H429.5V334.5H428.5V334.75V345.25V345.5H429.5V345.75V360.25V360.5H428.5V361.5H429.5V362.5H428.5V362.75V366.25V366.5H427.5V366.75V369.25V369.5H426.5V369.75V372.25V372.5H425.5V374.5H424.5V375.5H423.5V376.5H422.5V377.5H421.5V378.5H420.5V379.5C420.25 379.5 419.667 379.5 418.75 379.5H418.5V380.5H416.5V381.5H415.5V382.5H415.25H411.75H411.5V383.5H411.25H407.75H407.5V384.5H407.25H402.75H402.5V385.5H402.25H376.75H376.5V384.5H376.25H370.75H370.5V383.5H368.5V382.5H368.25H356.75H356.5V383.5H354.5V384.5H353.5V383.5H352.5V384.5H352.25H349.75H349.5V385.5H349.25H346.75H346.5V386.5H346.25H343.75H343.5V387.5H342.5V388.5H342.25H339.75H339.5V389.5H338.5V390.5H336.5V391.5H335.5V392.5H333.5V393.5H332.5V394.5H332.25H329.75H329.5V396.5H328.5V397.5H326.5V398.5H325.5V400.5H324.5V401.5H323.5V402.5H322.5V404.5H321.5V405.5H320.5V406.5H319.5V407.5H318.5C318.5 407.75 318.5 408.333 318.5 409.25V409.5H317.5V411.5H318.5V412.5H319.5V413.5H320.5V414.5H321.5V416.5H322.5V418.5H323.5V418.75V421.25V421.5H324.5V421.75V426.25V426.5H325.5V428.5H324.5V428.75V431.25V431.5H323.5V433.5H322.5V433.75V436.25V436.5H321.5V437.5H320.5V438.5H319.5V439.5H318.5V440.5H317.5V441.5H316.5V442.5H316.25H313.75H313.5V443.5H313.25H310.75H310.5V444.5H310.25H299.75H299.5V443.5H298.5V442.5H298.25H295.75H295.5V441.5H294.5V440.5H293.5V439.5H292.5V438.5H291.5V437.5H290.5V436.5H289.5V434.5H288.5V434.25V430.75V430.5H287.5V430.25V421.75V421.5H286.5V420.5H285.5V419.5H284.5V418.5H284.25H281.75H281.5V416.5H280.5V417.5H279.5V416.5H278.5V415.5H278.25H275.75H275.5V414.5H273.5V412.5H273.25H270.75H270.5V411.5H268.5V410.5H266.5V409.5H264.5V408.5H262.5V407.5C262.25 407.5 261.667 407.5 260.75 407.5H260.5V406.5H258.5V405.5H257.5V404.5H255.5V403.5H255.25H252.75H252.5V402.5H251.5V401.5H250.5V400.5H250.25H247.75H247.5V399.5H245.5V398.5H244.5V397.5H242.5V396.5H240.5V395.5C240.25 395.5 239.667 395.5 238.75 395.5H238.5V394.5H236.5V393.5H235.5V392.5H233.5V391.5H233.25H230.75H230.5V390.5H229.5V389.5H227.5V388.5H227.25H224.75H224.5V387.5C224.25 387.5 223.667 387.5 222.75 387.5H222.5V386.5H220.5V387.5H219.5V388.5H219.25H216.75H216.5V389.5H215.5V390.5H215.25H212.75H212.5V391.5H212.25H200.75H200.5V390.5H200.25H197.75H197.5V389.5H196.5V388.5H195.5V387.5H194.5V386.5H192.5V385.5H191.5V383.5H190.5V381.5H189.5V379.5H188.5V379.25V368.75V368.5H189.5V368.25V365.75V365.5H190.5V363.5H191.5V362.5H192.5V360.5H194.5V359.5H195.5V358.5H196.5V357.5H198.5V356.5H199.5V355.5H199.75H203.25H203.5V354.5H203.75H210.25H210.5V355.5H210.75H213.25H213.5V356.5H215.5V357.5H215.75H219.25H219.5V356.5H220.5V355.5H221.5V354.5H222.5V353.5H223.5V352.5H224.5V351.5H225.5V350.5H227.5V349.5H228.5V347.5H229.5V346.5H230.5V345.5H231.5V344.5H232.5V343.5H233.5V342.5H234.5V341.5H235.5V340.5H236.5V339.5H237.5V337.5H239.5V336.5H240.5V334.5H241.5V333.5H242.5V332.5H243.5V331.5H244.5V330.5H245.5V329.5H246.5V327.5H247.5V326.5H248.5V325.5H249.5V324.5H250.5V322.5H251.5V321.5H252.5V320.5H253.5V318.5H254.5V317.5H255.5V316.5H256.5V314.5H257.5V313.5H258.5V312.5H259.5V311.5H260.5V309.5H261.5V308.5H262.5V306.5H263.5V305.5H264.5V303.5H265.5V302.5H266.5V300.5H267.5V300.25V296.75V296.5H266.5V295.5H265.5V294.5H264.5V293.5H263.5V292.5H262.5V290.5H261.5V288.5H260.5V287.5H258.5V287.25V284.75V284.5H257.5V283.5H256.5V282.5H255.5V280.5H254.5V279.5H253.5V278.5H252.5V278.25V275.75V275.5H251.5V274.5H250.5V273.5H249.5V272.5H248.5V270.5H247.5V269.5H246.5V269.25V266.75V266.5H245.5V265.5H244.5V263.5H243.5V262.5H242.5V262.25V259.75V259.5H240.5C240.5 259.25 240.5 258.667 240.5 257.75V257.5H239.5V255.5H238.5V254.5H237.5V254.25V251.75V251.5H236.5V250.5H235.5C235.5 250.25 235.5 249.667 235.5 248.75V248.5H234.5V246.5H233.5V245.5H232.5V243.5H231.5V241.5H230.5V239.5H229.5V237.5H228.5V237.25V234.75V234.5H227.5V233.5H226.5V231.5H225.5V229.5H224.5V227.5H223.5V225.5H222.5V225.25V221.75V221.5H221.5V220.5H220.5V218.5H219.5V217.5H218.5V217.25V213.75V213.5H217.5V211.5H216.5V211.25V208.75V208.5H215.5V206.5H214.5V206.25V203.75V203.5H213.5V203.25V200.75V200.5H212.5V200.25V197.75V197.5H211.5V196.5H210.5V195.5H209.5V194.5H209.25H204.75H204.5V193.5H204.25H201.75H201.5V192.5H201.25H198.75H198.5V191.5H197.5V190.5H195.5V189.5H194.5V188.5H193.5V187.5H192.5V186.5H191.5V185.5H190.5V183.5H189.5V181.5H188.5V181.25V178.75V178.5H187.5V178.25V170.75V170.5H186.5V169.5H187.5V169.25V166.75V166.5H188.5V166.25V163.75V163.5H189.5C189.5 163.25 189.5 162.667 189.5 161.75V161.5H190.5V159.5H191.5V158.5H192.5V156.5H194.5V155.5H195.5V154.5H196.5V153.5H197.5V152.5H199.5V151.5H200.5V150.5H200.75H218.25H218.5V149.5H219.5V148.5H220.5V147.5H221.5V146.5H222.5V144.5H223.5V143.5H224.5V141.5H225.5V140.5H226.5V139.5H227.5V138.5H228.5V137.5H229.5V136.5H230.5V135.5H231.5V134.5H232.5V133.5H233.5V132.5H234.5V130.5H235.5V129.5H236.5V128.5H238.5V127.5H239.5V126.5H240.5V125.5H241.5V124.5H242.5V123.5H243.5V122.5H244.5V121.5H245.5V120.5H246.5V119.5H247.5V118.5H248.5V117.5H249.5V116.5H250.5V115.5H251.5V114.5C251.75 114.5 252.333 114.5 253.25 114.5H253.5V113.5H255.5V112.5H256.5V111.5H257.5V110.5H258.5V109.5H259.5V108.5C259.75 108.5 260.333 108.5 261.25 108.5H261.5V107.5H263.5V106.5H264.5V105.5H265.5V104.5H266.5V103.5H268.5V102.5H269.5V101.5H270.5V101.25V94.75V94.5H269.5V92.5H268.5V91.5H268.25H260.75H260.5V90.5H260.25H244.75H244.5V89.5H243.5V90.5H241.5V89.5H240.5V90.5H239.5V89.5H239.25H233.75H233.5V90.5H233.25H224.75H224.5V91.5H222.5V92.5H221.5V94.5H220.5V94.75V97.25V97.5H218.5V98.5H217.5V99.5H216.5V100.5H214.5V101.5H214.25H211.75H211.5V102.5H211.25H201.75H201.5V101.5H200.5V100.5H198.5V98.5H197.5V97.5H196.5V96.5H195.5V94.5H194.5V92.5H193.5V92.25V83.75V83.5H194.5C194.5 83.25 194.5 82.6667 194.5 81.75V81.5H195.5V79.5H196.5V78.5H197.5V77.5H198.5V75.5H199.5V74.5H199.75H202.25H202.5V73.5H204.5V74.5H205.5V73.5H205.75H211.25H211.5V74.5H212.5V73.5H213.5V74.5H215.5V75.5H216.5V76.5H217.5V77.5H218.5V78.5H219.5V79.5H220.5V80.5H221.5V81.5H223.5V82.5H223.75H227.25H227.5V81.5H227.75H249.25H249.5V82.5H249.75H263.25H263.5V83.5H263.75H267.25H267.5V84.5H267.75H270.25H270.5V83.5H271.5V82.5H272.5V81.5H273.5V79.5H274.5V78.5H275.5V77.5H276.5V75.5H277.5V74.5H278.5V74.25V71.75V71.5H277.5V69.5H276.5V68.5H275.5V67.5H274.5C274.5 67.25 274.5 66.6667 274.5 65.75V65.5H273.5V63.5H272.5V62.5H271.5V60.5H270.5V59.5H269.5V58.5H268.5V56.5H267.5V55.5H266.5V54.5H265.5V53.5H264.5V51.5H263.5V50.5H262.5V49.5H261.5V47.5H260.5V46.5H258.5V44.5H257.5V43.5H256.5V42.5H255.5V41.5H254.5V40.5H253.5V39.5H252.5V38.5H251.5V37.5H250.5V36.5H249.5V35.5H248.5V34.5H246.5V33.5H245.5V32.5H245.25H241.75H241.5V33.5H240.5V34.5H240.25H237.75H237.5V35.5H235.5V36.5H235.25H227.75H227.5V35.5H225.5V34.5H225.25H222.75H222.5V33.5H220.5V32.5H219.5V31.5H218.5V30.5H217.5V29.5H216.5V29.25V26.75V26.5H215.5V24.5H214.5V23.5H213.5V23.25V14.75V14.5H214.5V13.5H213.5V12.5H214.5V11.5H215.5C215.5 11.25 215.5 10.6667 215.5 9.75V9.5H216.5V7.5H217.5V6.5H218.5V5.5H219.5V3.5H221.5V2.5H223.5V1.5H223.75H226.25H226.5V0.5ZM275.5 21.5V22.5H274.5V24.5H275.5V25.5H276H278.5V26.5H280.5V27.5H281H284.5V28.5H286.5V29.5H288.5V30.5H289H292.5V31.5H294.5V32.5H296.5V33.5H297H299.5V34.5H301.5V35.5H303.5V36.5H304H306.5V37.5H307.5V38.5H309.5V39.5H310H312.5V40.5H314.5V41.5H315.5V42.5H316H318.5V43.5H319.5V44.5H321.5V45.5H322C322.667 45.5 323.167 45.5 323.5 45.5V46.5H325.5V47.5H326.5V48.5H328.5V49.5H329.5V50.5H331.5V51.5H332C332.667 51.5 333.167 51.5 333.5 51.5V52.5H334.5V53.5H335.5V54.5H336H338.5V55.5H339.5V56.5H340.5V57.5H342.5V58.5H343H345.5V57.5H346H356.5V58.5H358.5V59.5H359.5V60.5H361.5V62.5H362.5V63C362.5 63.6667 362.5 64.1667 362.5 64.5H363.5V65.5H364.5V67.5H365.5V68.5H366H370.5V69.5H371H376.5V70.5H377H379.5V71.5H381.5V72.5H382H385.5V73.5H387.5V74.5H389.5V73.5H390.5V71.5H389.5C389.5 70.5 389.5 69.8333 389.5 69.5H388.5V68.5H387.5V67.5H386.5V66.5H385.5V65.5H384.5V64.5H383.5V63.5H382.5V62.5H381.5V60.5H380.5V59.5H378.5V58.5H377.5V57.5H376.5V56.5H375.5V55.5H374.5V54.5H373.5V53.5H371.5V52.5H370.5V51.5H369.5V50.5H368.5V49.5H366.5V48.5H365.5V47.5H363.5V46.5H362.5V45.5H360.5V44.5H359.5V43.5H357.5V42.5H356.5V41.5H354.5V40.5H352H351.5V39.5H350.5V38.5H348.5V37.5H346H345.5V36.5H344.5V35.5H342.5V34.5H340H339.5V33.5H337.5V32.5H335.5V31.5H332H331.5V30.5H329.5V29.5H327H326.5V28.5H322H321.5V27.5H319H318.5V26.5H315H314.5V25.5H309H308.5V24.5H303H302.5V23.5H298H297.5V22.5H278H277.5V21.5H275.5ZM257.5 29.5V30V32.5H258.5V33.5H259.5V34.5H260.5V35.5H261.5V36.5H262.5V37.5H263.5V38.5H264.5V39.5H265.5V41.5H266.5V42.5H268.5V44.5H269.5V45.5H270.5V46.5H271.5V47.5H272.5V48.5H273.5V50.5H274.5V51C274.5 51.6667 274.5 52.1667 274.5 52.5H275.5V53.5H276.5V54.5H277.5V56.5H278.5V57.5H279.5V58.5H280.5V60.5H281.5V61.5H282.5V62.5H283.5V63V65.5H284.5V66.5H285.5V68.5H286.5V69.5H287H290.5V70.5H291.5V71.5H292H295.5V70.5H297.5V69.5H298.5V70.5H300.5V71.5H302.5V72.5H303H305.5V73.5H306.5V74.5H307.5V75.5H308.5V76.5H309.5V77.5H310.5V78.5H311.5V77.5H312.5V78.5H314.5V77.5H315.5V76.5H317.5V75.5H318H320.5V74.5H322.5V73.5H323H325.5V72.5H326H330.5V71.5H331.5V70.5H332H335.5V69.5H336.5V67V66.5H337.5V65.5H336.5V64.5H335.5V63.5H334.5V62.5H333.5V61.5H331.5V60.5C330.5 60.5 329.833 60.5 329.5 60.5V59.5H328.5V58.5H326.5V57.5H324.5V56.5H323.5V55.5H321.5V54.5C320.5 54.5 319.833 54.5 319.5 54.5V53.5H318.5V52.5H316.5V51.5H315.5V50.5H314.5V49.5H312H311.5V48.5H309.5V47.5H308.5V46.5H306H305.5V45.5H303.5V44.5H302.5V43.5H300H299.5V42.5H297.5V43.5H296.5V41.5H295.5V40.5H293H292.5V39.5H289H288.5V38.5H287.5V37.5H285H284.5V36.5H282H281.5V35.5H279.5V34.5H276H275.5V33.5H272H271.5V32.5H269.5V31.5H265H264.5V30.5H261H260.5V29.5H258H257.5ZM368.5 77.5V78.5H367.5V79.5H368.5V80.5H370.5V82.5H371.5V83.5H372.5V84.5H373.5V86.5H374.5V87.5H376.5V89.5H377.5V90.5H378.5V91.5H379.5V93.5H380.5V94.5H381.5V95.5H382.5V96.5H384.5V97V99.5H385.5V101.5H386.5V102.5H387.5V104.5H388.5V105.5H389.5V106.5H390.5V108.5H391.5V109C391.5 109.667 391.5 110.167 391.5 110.5H392.5V111.5H393.5V113.5H394.5V114V116.5H395.5V117.5H396.5V119.5H397.5V120.5H398.5V122.5H399.5V123C399.5 123.667 399.5 124.167 399.5 124.5H400.5V125V128.5H401.5V129.5H402.5V130V133.5H403.5V134V136.5H404.5V137.5H405.5V138V141.5H406.5V142V145.5H407.5V147.5H408.5V148V153.5H409.5V154V158.5H410.5V159V163.5H411.5V164V175.5H412.5V176.5H413.5V175.5H414.5V171V170.5H415.5V165V164.5H416.5V162V161.5H417.5V156V155.5H418.5V150V149.5H419.5V147V146.5H420.5V136V135.5H419.5V133V132.5H418.5V125V124.5H417.5V121V120.5H416.5V118.5H415.5V116V115.5H414.5V112V111.5H413.5V110.5H412.5V108.5H411.5C411.5 107.5 411.5 106.833 411.5 106.5H410.5V105.5H409.5V103.5H408.5C408.5 102.5 408.5 101.833 408.5 101.5H407.5V100.5H406.5V99.5H405.5V97.5H404.5V96.5H403.5V95.5H402.5V94.5H401.5V93.5H400.5V92.5H399.5V91.5H398.5V90.5H397.5V89.5H396.5V88.5H395.5V87.5H393H392.5V86.5H391.5V85.5H390.5V84.5H388H387.5V83.5H386.5V82.5H384H383.5V81.5H381.5V80.5H380.5V79.5H376H375.5V78.5H372H371.5V77.5H369H368.5ZM332.5 79.5V80.5H331.5V81.5H328H327.5V82.5H324H323.5V83.5H322.5V84.5H320H319.5V85.5H317H316.5V86.5H315.5V87V90.5H316.5V92.5H315.5V93.5H316.5V95.5H317.5V96.5H318H321.5V97.5H322H324.5V98.5H325.5V99.5H326H328.5V100.5H329H331.5V101.5H332.5V102.5H333H335.5V103.5H337.5V104.5H338.5V105.5H339H341.5V106.5H343.5V107.5H344.5V108.5H345H347.5V109.5H348.5V110.5H349.5V111.5H350H352.5V112.5H353.5V113.5H355.5V114.5H356.5V115.5H358.5V116.5H359.5V117.5H361.5V118.5H362C362.667 118.5 363.167 118.5 363.5 118.5V119.5H364.5V120.5H365.5V121.5H367.5V122.5H368.5V123.5H370.5V125.5H371.5V126.5H372H374.5V127.5H375.5V128.5H376.5V129.5H377.5V130.5H378.5V131.5H379.5V132.5H380.5V133.5H381.5V134.5H382.5V135.5H384.5V136.5H385.5V137.5H386.5V138.5H387.5V139.5H388.5V140.5H389.5V141.5H390.5V142.5H391.5V143.5H392.5V144.5H393.5V146.5H394.5V147.5H395.5V148.5H396.5V147.5H397.5V145V144.5H396.5V141V140.5H395.5V138.5H394.5V136V135.5H393.5V133V132.5H392.5V131.5H391.5V129V128.5H390.5V126V125.5H389.5V124.5H388.5V122.5H387.5C387.5 121.5 387.5 120.833 387.5 120.5H386.5V119.5H385.5V117V116.5H384.5V114.5H383.5V113.5H382.5V112.5H381.5V110V109.5H380.5V108.5H379.5V107.5H378.5V105.5H377.5V104.5H376.5V103.5H375.5V101.5H374.5V100.5H373.5V99.5H372.5V97.5H371.5V96.5H370.5V95.5H369.5V94.5H368.5V93.5H367.5V92.5H366.5V90.5H365.5V89.5H363.5V87.5H362.5V86.5H361.5V85.5H359.5V84.5H357H356.5V85.5H346H345.5V84.5H343.5V83.5H342.5V82.5H340.5V81.5H339.5V80.5H338.5V79.5H333H332.5ZM313.5 103.5V104.5H312.5V106.5H311.5V107.5H310.5V108.5H309.5V109.5H308.5V110.5H307.5V111.5H306.5V112V114.5H307.5V115V119.5H308.5V120.5H309.5V121V125.5H310.5V126V131.5H311.5V132.5H312.5V133V139.5H313.5V140V146.5H314.5V147.5H315.5V148V156.5H316.5V157V169.5H317.5V170.5H318.5V171.5H319H323.5V172.5H325.5V173.5H326.5V174.5H328.5V176.5H329.5V177.5H331.5V179.5H332.5V180.5H333.5V182.5H334.5V183V185.5H335.5V186.5H336.5V187V199.5H335.5V200V203.5H336.5V204.5H337.5V205.5H338.5V206.5H339.5V207.5H340.5V208.5H342.5V209.5H343.5V210.5H344.5V211.5H345.5V212.5H346.5V213.5H347.5V214.5H348.5V215.5H349.5V216.5H350.5V217.5H351.5V218.5H352.5V220.5H353.5V221.5H354.5V222.5H355.5V223.5H356.5V224.5H357.5V225.5H358.5V227.5H359.5V228.5H361.5V230.5H362.5V231.5H363.5V233.5H364.5V234.5H365.5V235.5H366.5V236.5H367.5V237.5H368.5V238.5H369.5V240.5H370.5V241C370.5 241.667 370.5 242.167 370.5 242.5H371.5V243.5H373.5V244.5H374.5V245.5H376.5V244.5H377H383.5V245.5H384.5V244.5H385.5V243.5H386.5V242.5H387.5V240.5H388.5C388.5 239.5 388.5 238.833 388.5 238.5H389.5V236.5H390.5V234V233.5H391.5V231.5H392.5V230.5H393.5V227V226.5H394.5V224V223.5H395.5V222.5H396.5V218V217.5H397.5V214V213.5H398.5V211.5H399.5V207V206.5H400.5V200V199.5H401.5V197.5H402.5V173V172.5H401.5V171.5H400.5V170.5H399.5V168.5H398.5V167.5H397.5V165.5H396.5V163.5H395.5V162.5H394.5V161.5H393.5V160.5H392.5V158.5H391.5V157.5H390.5V156.5H389.5V155.5H388.5V154.5H387.5V152.5H386.5V151.5H385.5V150.5H384.5V149.5H383.5V148.5H382.5V147.5H381.5V146.5H380.5V145.5H378.5V143.5H377.5V142.5H375.5V140.5H374.5V139.5H372.5V137.5H371.5V136.5H369.5V135.5H368.5V134.5H367.5V133.5H365.5V132.5H364.5V131.5H363.5V130.5H362.5V129.5H360.5V128.5H359.5V127.5H357.5V126.5H356.5V125.5H355.5V124.5H353.5V123.5C352.5 123.5 351.833 123.5 351.5 123.5V122.5H350.5V121.5H348.5V120.5H346.5V119.5H345.5V118.5H343.5V117.5C342.5 117.5 341.833 117.5 341.5 117.5V116.5H340.5V115.5H338H337.5V114.5H335.5V113.5H334.5V112.5H332H331.5V111.5H329.5V110.5H328.5V109.5H326H325.5V108.5H323H322.5V107.5H321.5V106.5H319H318.5V105.5H316H315.5V104.5H314.5V103.5H313.5ZM273.5 109.5V110.5H272.5V111.5H271.5V112.5H269.5V113.5H268.5V114.5H266.5V115.5H265.5V116.5H264.5V117.5H263.5V118.5H261.5V119.5H260.5V120.5H259.5V121.5H258.5V122.5H257.5V123.5H256.5V124.5H254.5V125.5H253.5V126.5H252.5V127.5H251.5V128.5H250.5V129.5H249.5V130.5H248.5V131.5H247.5V132.5H245.5V133.5H244.5V134.5H243.5V135.5H242.5V136.5H241.5V137.5H240.5V138.5H239.5V139.5H238.5V140.5H237.5V142.5H236.5V143.5H235.5V145.5H233.5V146.5H232.5V148.5H230.5V149.5H229.5V151.5H228.5V153.5H227.5V154.5H226.5V156.5H227.5V157.5H228.5V159.5H229.5V160V162.5H230.5V163.5H231.5V164V166.5H232.5V167V176.5H231.5V177V181.5H230.5V182.5H229.5V184.5H228.5V185C228.5 185.667 228.5 186.167 228.5 186.5H227.5V187.5H226.5V188.5H225.5V189.5H224.5V190.5H222.5V191.5H221.5V192.5H220.5V193V197.5C220.5 197.5 220.667 197.5 221 197.5C221.667 197.5 222.167 197.5 222.5 197.5V198V201.5H223.5V202V205.5C223.5 205.5 223.667 205.5 224 205.5C224.667 205.5 225.167 205.5 225.5 205.5V206V209.5H226.5V210V212.5H227.5V213.5H228.5V214V216.5H229.5V217V219.5H230.5V220.5H231.5V221.5H232.5V222V225.5H233.5V227.5H234.5V229.5H235.5V231.5H236.5V232.5H237.5V234.5H238.5V235V237.5H240.5V238V240.5H241.5V241V243.5H242.5V244.5H243.5V246.5H244.5V247C244.5 247.667 244.5 248.167 244.5 248.5H245.5V249.5H246.5V251.5H247.5V252C247.5 252.667 247.5 253.167 247.5 253.5H248.5V254.5H249.5V256.5H250.5V257C250.5 257.667 250.5 258.167 250.5 258.5H251.5V259.5H252.5V261.5H253.5V262C253.5 262.667 253.5 263.167 253.5 263.5H254.5V264.5H255.5V266.5H256.5V267.5H257.5V268.5H258.5V270.5H259.5V271C259.5 271.667 259.5 272.167 259.5 272.5H260.5V273.5H261.5V275.5H262.5V276.5H263.5V277.5H264.5V279.5H265.5V280C265.5 280.667 265.5 281.167 265.5 281.5H266.5V282.5H267.5V283.5H268.5V285.5H269.5V286.5H270.5V287.5H271.5V288.5H272.5V289.5H273.5V288.5H274.5V286.5H275.5V285.5H276.5V283.5H277.5C277.5 282.5 277.5 281.833 277.5 281.5H278.5V280.5H279.5V278.5H280.5V276.5H281.5V275.5H282.5V273V272.5H283.5V270.5H284.5V269.5H285.5V267V266.5H286.5V264.5H287.5V263.5H288.5V261V260.5H289.5V258V257.5H290.5V256.5H291.5V254V253.5H292.5V251V250.5H293.5V249.5H294.5V246V245.5H295.5V243V242.5H296.5V241.5H297.5V238V237.5H298.5V234V233.5H299.5V232.5H300.5V227V226.5H301.5V223V222.5H303.5V217V216.5H304.5V214.5H303.5V213.5H301.5V212.5H300.5V211.5H299.5V210.5H298.5V209.5H297.5V208.5H296.5V207.5H295.5V206.5H294.5V204.5H293.5V203.5H292.5V200V199.5H291.5V186V185.5H292.5V183.5H293.5V182.5H294.5V180V179.5H295.5V178.5H296.5V177.5H297.5V176.5H298.5V175.5H299.5V174.5H301.5V173.5H302.5V172.5H303H305.5V171.5H306.5V169.5H307.5V161V160.5H306.5V152V151.5H305.5V149.5H304.5V143V142.5H303.5V137V136.5H302.5V134.5H301.5V130V129.5H300.5V124V123.5H299.5V122.5H298.5V120V119.5H297.5V117V116.5H296.5V115.5H286H285.5V114.5H283H282.5V113.5H281.5V112.5H279.5V111.5H277.5V110.5H276.5V109.5H274H273.5ZM416.5 201.5V202.5H415.5V203V205.5H414.5V206V209.5H413.5V210.5H412.5V211V213.5H411.5V214V216.5H410.5V217.5H409.5V218V220.5H408.5V221V223.5H407.5V224.5H406.5V225V227.5H405.5V229.5H404.5V230.5H403.5V231V233.5H402.5V235.5H401.5V236.5H400.5V238.5H399.5V239C399.5 239.667 399.5 240.167 399.5 240.5H398.5V241.5H397.5V242V244.5H396.5V246.5H395.5V247.5H394.5V248V250.5H393.5V252.5H394.5V253V255.5H395.5V256.5H396.5V257V267.5H395.5V268.5H394.5V269V271.5H393.5V272V274.5H394.5V276.5H395.5V277.5H396.5V279.5H397.5V280C397.5 280.667 397.5 281.167 397.5 281.5H398.5V282.5H399.5V284.5H400.5V285C400.5 285.667 400.5 286.167 400.5 286.5H401.5V287.5H402.5V289.5H403.5V290C403.5 290.667 403.5 291.167 403.5 291.5H404.5V292.5H405.5V294.5H406.5V295V297.5H407.5V298.5H408.5V300.5H409.5V301C409.5 301.667 409.5 302.167 409.5 302.5H411.5V303V305.5H412.5V306V308.5H413.5V309.5H414.5V311.5H415.5V312V314.5H416.5V315.5H417.5V317.5H418.5V318V320.5H419.5V321.5H420.5V322V324.5H421.5V325.5H422.5V326.5H423.5V325.5H425.5V324.5H427.5V323.5H428.5V322.5H429.5V320.5H430.5V315V314.5H429.5V313.5H428.5V312.5H427.5V311.5H426.5V310.5H425.5V309.5H424.5V304V303.5H425.5V302.5H426.5V301.5H427H429.5V300.5H431.5V299.5H432.5V298.5H433.5V297.5H434.5V296.5H435.5V291V290.5H434.5V289.5H433.5V286V285.5H432.5V282V281.5H431.5V280.5H430.5V272V271.5H431.5V270.5H432.5V269.5H433.5V268.5H434.5V267.5H435.5V266.5H436.5V265.5H437.5V264.5H439.5V263.5H440C440.667 263.5 441.167 263.5 441.5 263.5V262.5H443.5V261.5H444H446.5V260.5H447.5V259.5H449.5V258.5H450C450.667 258.5 451.167 258.5 451.5 258.5V257.5H452.5V256.5H454.5V255.5H455.5V254.5H456.5V252V251.5H455.5V250.5H454.5V248.5H453.5C453.5 247.5 453.5 246.833 453.5 246.5H452.5V245.5H451.5V243.5H450.5C450.5 242.5 450.5 241.833 450.5 241.5H449.5V240.5H447.5V238.5H446.5V237.5H445.5V236.5H444.5V235.5H443.5V234.5H442.5V233.5H441.5V231.5H440.5V230.5H439.5V229.5H438.5V227.5H437.5V226.5H436.5V225.5H435.5V224.5H434.5V223.5H433.5V221.5H432.5V220.5H431.5V219.5H430.5V218.5H429.5V216.5H428.5V215.5H427.5V214.5H426.5V212.5H425.5V211.5H424.5V209.5H423.5C423.5 208.5 423.5 207.833 423.5 207.5H422.5V206.5H421.5V204.5H420.5C420.5 203.5 420.5 202.833 420.5 202.5H419.5V201.5H417H416.5ZM328.5 210.5V211.5H326.5V212.5H325.5V213.5H323.5V214.5H319H318.5V215.5H317.5V216.5H315H314.5V217.5H313.5V219.5H312.5V220V225.5H311.5V226.5H310.5V227V231.5H309.5V232V235.5H308.5V236.5H307.5V237V240.5H306.5V241V244.5H305.5V245.5H304.5V246V249.5H303.5V250V252.5H302.5V253.5H301.5V254V256.5H300.5V257V259.5H299.5V260.5H298.5V261V263.5H297.5V265.5H296.5V266.5H295.5V267V269.5H294.5V271.5H293.5V272.5H292.5V273V275.5H291.5V277.5H290.5V278.5H289.5V279V281.5H288.5V283.5H287.5V284.5H286.5V285V287.5H285.5V289.5H284.5V290.5H283.5V292.5H282.5V293C282.5 293.667 282.5 294.167 282.5 294.5H281.5V295.5H280.5V296.5H279.5V297V299.5H280.5V300.5H281.5V301.5H282.5V302.5H283.5V303.5H284.5V305.5H285.5V306.5H286.5V308.5H287.5V309.5H289.5V311.5H290.5V312.5H292.5V314.5H293.5V315.5H294.5V316.5H295.5V317.5H297.5V316.5H298H309.5V317.5H310.5V318.5H311H313.5V319.5H314H317.5V318.5H318.5V317.5H319.5V316.5H320.5V315.5H321.5V314.5H323.5V313.5H324.5V312.5H326.5V311.5H327.5V309.5H329.5V308.5H330.5V307.5H331.5V306.5H332.5V305.5H333.5V304.5H335.5V303.5H336.5V302.5H337.5V301.5H338.5V300.5H339.5V299.5H340.5V298.5H341.5V297.5H342.5V296.5H343.5V295.5H344.5V294.5H345.5V293.5H346.5V292.5H347.5V291.5H348.5V290.5H349.5V289.5H350.5V288.5H351.5V287.5H352.5V286.5H353.5V285.5H354.5V284.5H355.5V283.5H356.5V282.5H357.5V281.5H358.5V279V278.5H360.5V277.5H361.5V276.5H362.5V275.5H363.5V273.5H365.5V272.5H366.5V271.5H365.5V270.5H364.5V268V267.5H363.5V256V255.5H364.5V253.5H365.5V252.5H366.5V250.5H365.5V249.5H364.5V248.5H363.5V246.5H362.5V245.5H361.5V244.5H360.5V242.5H359.5V241.5H357.5V239.5H356.5V238.5H355.5V236.5H354.5V235.5H353.5V234.5H352.5V233.5H351.5V232.5H350.5V231.5H349.5V230.5H348.5V229.5H347.5V228.5H346.5V227.5H345.5V225.5H344.5V224.5H342.5V222.5H341.5V221.5H339.5V219.5H338.5V218.5H337.5V217.5H336.5V216.5H335.5V215.5H334.5V214.5H332.5V213.5H331.5V212.5H330.5V211.5H329.5V210.5H328.5ZM373.5 277.5V278.5H372.5V279.5H371.5V280.5H370.5V281.5H369.5V283.5H368.5V284.5H367.5V286.5H365.5V287.5H364.5V289.5H362.5V290.5H361.5V292.5H360.5V293.5H359.5V294.5H358.5V295.5H357.5V296.5H356.5V297.5H355.5V298.5H354.5V299.5H353.5V300.5H352.5V301.5H351.5V302.5H350.5V303.5H349.5V304.5H347.5V305.5H346.5V307.5H344.5V308.5H343.5V310.5H341.5V311.5H340.5V313.5H338.5V314.5H337.5V315.5H335.5V316.5H334.5V317.5H333.5V318.5H332.5V319.5H331.5V320.5H329.5V321.5H328.5V322.5H326.5V323.5H325.5V325.5H323.5V326.5H322.5V327.5H320.5V328.5H319.5V329V338.5H318.5V339.5H319.5V341.5H320.5V342.5H322.5V344.5H323.5V345.5H325.5V346.5H326C326.667 346.5 327.167 346.5 327.5 346.5V347.5H328.5V348.5H329.5V349.5H330.5V350.5H331.5V351.5H333.5V352.5H334.5V353.5H335.5V354.5H337.5V355.5H338C338.667 355.5 339.167 355.5 339.5 355.5V356.5H340.5V357.5H341.5V358.5H343.5V359.5H344.5V360.5H346.5V361.5H348.5V362.5H349.5V363.5H350H352.5V364.5H353.5V365.5H354.5V366.5H356.5V367.5H357H359.5V368.5H360.5V369.5H361H363.5V370.5H364H366.5V371.5H367.5V372.5H368H370.5V373.5H371H375.5V374.5H376.5V375.5H377H381.5V376.5H382H403.5V375.5H404H408.5V374.5H409.5V373.5H410H412.5V372.5H414.5V371.5H415.5V370.5H416.5V369.5H417.5V367V366.5H418.5V364.5H419.5V363.5H420.5V346V345.5H419.5V344.5H418.5V342V341.5H417.5V339V338.5H416.5V337.5H415.5V335V334.5H414.5V332V331.5H413.5V330.5H412.5V328V327.5H411.5V325V324.5H410.5V323.5H409.5V322.5H408.5V320V319.5H407.5V317.5H406.5V316.5H405.5V314V313.5H404.5V312.5H403.5V310V309.5H402.5V307.5H401.5V306.5H400.5V304.5H399.5V302V301.5H398.5V300.5H397.5V298.5H396.5C396.5 297.5 396.5 296.833 396.5 296.5H395.5V295.5H394.5V293.5H393.5C393.5 292.5 393.5 291.833 393.5 291.5H392.5V290.5H391.5V288.5H390.5C390.5 287.5 390.5 286.833 390.5 286.5H389.5V285.5H388.5V283.5H387.5C387.5 282.5 387.5 281.833 387.5 281.5H386.5V280.5H385.5V278.5H384.5V277.5H382.5V278.5C381.5 278.5 380.833 278.5 380.5 278.5V279.5H379.5V278.5H377.5V277.5H376.5V278.5H375.5V277.5H373.5ZM272.5 307.5V308.5H271.5V309V311.5H270.5V312.5H269.5V313.5H268.5V315.5H267.5V316.5H266.5V317.5H265.5V319.5H264.5V320C264.5 320.667 264.5 321.167 264.5 321.5H263.5V322.5H262.5V323.5H261.5V324.5H260.5V325.5H259.5V327.5H258.5V328.5H257.5V329.5H256.5V331.5H255.5V332.5H254.5V334.5H253.5V335.5H252.5V336.5H251.5V337.5H250.5V338.5H249.5V339.5H248.5V340.5H247.5V341.5H246.5V342.5H245.5V343.5H244.5V345.5H243.5V346.5H242.5V347.5H241.5V349.5H239.5V350.5H238.5V352.5H236.5V353.5H235.5V355.5H233.5V356.5H232.5V358.5H230.5V359.5H229.5V361.5H228.5V362.5H229.5V363.5H231.5V362.5H233.5V361.5H234H237.5V360.5H238H241.5V359.5H242.5V358.5H243H245.5V357.5H246H249.5V356.5H250.5V355.5H251H253.5V354.5H254H257.5V353.5H258.5V352.5H260.5V351.5H261H263.5V350.5H264.5V349.5H265H267.5V348.5H268H270.5V347.5H271.5V346.5H273.5V345.5H274C274.667 345.5 275.167 345.5 275.5 345.5V344.5H276.5V343.5H277H279.5V342.5H281.5V341.5H282.5V340.5H284.5V339.5H285H287.5V338.5H288.5V336V335.5H287.5V334.5H286.5V331V330.5H287.5V329.5H288.5V324V323.5H287.5V322.5H286.5V321.5H285.5V320.5H284.5V319.5H283.5V317.5H282.5V316.5H281.5V315.5H280.5V314.5H279.5V313.5H278.5V312.5H277.5V310.5H276.5V308.5H275.5V307.5H273H272.5ZM292.5 339.5V340.5H290H289.5V341.5H288.5V343.5H287.5V344V347.5H289.5V346.5H290.5V345.5H292.5V343.5H293H295.5V344.5H296.5V343.5H298.5V341V340.5H296.5V339.5H293H292.5ZM290.5 346.5V347.5H291.5V346.5H290.5ZM293.5 346.5V347.5H292.5V348V351.5H289H288.5V350.5H287.5V349.5H286.5V350.5H285.5V351.5H283H282.5V352.5H280.5V353.5H279.5V354.5H277.5V355.5H275H274.5V356.5H273.5V357.5H271.5V358.5H269H268.5V359.5H267.5V360.5H264H263.5V361.5H261H260.5V362.5H259.5V363.5H257.5V364.5H254H253.5V365.5H252.5V366.5H249H248.5V367.5H245H244.5V369.5H241H240.5V370.5H237H236.5V371.5H235.5V372.5H231H230.5V373.5H228H227.5V374.5H226.5V376.5H225.5V377.5H226.5V378.5H227.5V379.5H229.5V380.5H230.5V381.5H231H233.5V382.5H235.5V383.5H236.5V384.5H237H239.5V385.5H241.5V386.5H242.5V387.5H244.5V388.5H245C245.667 388.5 246.167 388.5 246.5 388.5V389.5H247.5V390.5H248H250.5V391.5H252.5V392.5H253.5V393.5H254H256.5V394.5H258.5V395.5H259.5V396.5H261.5V397.5H262C262.667 397.5 263.167 397.5 263.5 397.5V398.5H264.5V399.5H266.5V400.5H267C267.667 400.5 268.167 400.5 268.5 400.5V401.5H269.5V402.5H270H272.5V403.5H274.5V404.5H275.5V405.5H276H278.5V406.5H280.5V407.5H281.5V408.5H282H284.5V409.5H286.5V410.5H287.5V411.5H289.5V412.5H290H292.5V411.5H294.5V410.5H295.5V409.5H296.5V408.5H297H300.5V407.5H301.5V406.5H302H309.5V405.5H310.5V403.5H311.5V402.5H312.5V400.5H313.5V399.5H314.5V398.5H315.5V396.5H317.5V395.5H318.5V393.5H319.5V392.5H320.5V391.5H321.5V390.5H323.5V389.5H324.5V387.5H326.5V386.5H327.5V385.5H329.5V384.5H330.5V383.5H331.5V382.5H333.5V381.5H334H336.5V380.5H337.5V379.5H339.5V378.5H340H343.5V377.5H344.5V376.5H345H348.5V375.5H349.5V374.5H348.5V373.5H347.5V372.5H346.5V371.5H345.5V370.5H344.5V371.5H343.5V370.5H342.5V369.5H340.5V368.5H339.5V367.5H338.5V366.5H336.5V365.5H335.5V364.5H333.5V363.5C332.5 363.5 331.833 363.5 331.5 363.5V362.5H330.5V361.5H329.5V360.5H328.5V359.5H327.5V358.5H325H324.5V356.5H323.5V355.5H321.5V354.5C320.5 354.5 319.833 354.5 319.5 354.5V353.5H318.5V352.5H317.5V351.5H316.5V350.5H315.5V349.5H314.5V348.5H313.5V347.5H312.5V346.5H311.5V347.5H310.5V348.5H306H305.5V349.5H303.5V350.5H302.5V349.5H301.5V348.5H298H297.5V347.5H296.5V346.5H294H293.5Z" fill="#469BC7"/>
<path d="M290.5 346.5H289.5V347.5H287.5V344V343.5H288.5V341.5H289.5V340.5H290H292.5V339.5H293H296.5V340.5H298.5V341V343.5H296.5V344.5H295.5V343.5H293H292.5V345.5H290.5V346.5ZM290.5 346.5V347.5H291.5V346.5H290.5ZM226.5 0.5H226.75H237.25H237.5V1.5C237.75 1.5 238.333 1.5 239.25 1.5H239.5V2.5H241.5V3.5H242.5V4.5H244.5V6.5H245.5V7.5H246.5V8.5H247.5V8.75V11.25V11.5H248.5V12.5H249.5V13.5C249.75 13.5 250.333 13.5 251.25 13.5H251.5V14.5H253.5V13.5H254.5V14.5H254.75H291.25H291.5V15.5H291.75H302.25H302.5V16.5H302.75H308.25H308.5V17.5H308.75H313.25H313.5V18.5H313.75H319.25H319.5V19.5H321.5V20.5H321.75H326.25H326.5V21.5H326.75H329.25H329.5V22.5H329.75H332.25H332.5V23.5H332.75H335.25H335.5V24.5H335.75H338.25H338.5V25.5H338.75H341.25H341.5V26.5H342.5V27.5H342.75H345.25H345.5V28.5H347.5V29.5H349.5V30.5H349.75H352.25H352.5V31.5H354.5V32.5H355.5V33.5H355.75H358.25H358.5V34.5H359.5V35.5H361.5V36.5H361.75H364.25H364.5V37.5H365.5V38.5H366.5V39.5H367.5V40.5H369.5V41.5H370.5V42.5H371.5V43.5H372.5V44.5H373.5V45.5H373.75H376.25H376.5V47.5H377.5V48.5H379.5V49.5H380.5V50.5H381.5V51.5H382.5V52.5H384.5V53.5H385.5V54.5H386.5V55.5H387.5V56.5H388.5V58.5H389.5V59.5H390.5V60.5H391.5V61.5H392.5V62.5H393.5V63.5H394.5V64.5H395.5V65.5H396.5V66.5H397.5V68.5H398.5V69.5H400.5V69.75V72.25V72.5H401.5V73.5H402.5V75.5H403.5V76.5H404.5V78.5H405.5V79.5H406.5V81.5H407.5V82.5H408.5V83.5H409.5V83.75V86.25V86.5H410.5V87.5H411.5V87.75V90.25V90.5H412.5V91.5H413.5V93.5H414.5V95.5H415.5C415.5 95.75 415.5 96.3333 415.5 97.25V97.5H416.5V99.5H417.5V100.5H418.5V100.75V103.25V103.5H419.5V105.5H420.5V107.5H421.5V109.5H422.5V109.75V112.25V112.5H423.5V114.5H424.5V114.75V119.25V119.5H425.5V121.5H426.5V121.75V127.25V127.5H427.5V127.75V132.25V132.5H428.5V133.5H427.5V134.5H428.5V134.75V147.25V147.5H427.5V147.75V154.25V154.5H426.5V154.75V159.25V159.5H425.5V159.75V163.25V163.5H424.5V163.75V171.25V171.5H423.5V171.75V178.25V178.5H422.5V178.75V188.25V188.5H423.5V189.5H424.5V189.75V194.25V194.5H425.5V195.5H426.5V197.5H427.5V198.5H428.5V200.5H429.5V201.5H430.5V201.75V204.25V204.5H431.5V205.5H432.5V206.5H433.5V208.5H434.5V209.5H435.5V211.5H436.5V212.5H437.5V213.5H438.5V215.5H439.5V216.5H440.5V217.5H441.5V218.5H442.5V220.5H443.5V221.5H444.5V222.5H445.5V224.5H446.5V225.5H447.5V226.5H448.5V227.5H449.5V228.5H450.5V229.5H451.5V231.5H452.5V232.5H454.5V233.5H455.5V235.5H456.5V236.5H457.5V237.5H458.5V238.5H459.5V240.5H460.5V242.5H461.5V244.5H462.5V246.5H463.5V248.5H464.5V248.75V251.25V251.5H465.5V251.75V254.25V254.5H464.5V254.75V258.25V258.5H463.5V260.5H462.5V261.5H461.5V262.5H460.5V263.5H459.5V264.5H457.5V265.5H455.5V266.5H453.5V267.5H451.5V268.5C451.25 268.5 450.667 268.5 449.75 268.5H449.5V269.5H447.5V270.5H446.5V271.5H446.25H443.75H443.5V272.5H442.5V273.5H441.5V274.5H440.5V275.5H439.5V275.75V279.25V279.5H440.5V281.5H441.5V281.75V284.25V284.5H442.5V284.75V288.25V288.5H443.5V288.75V300.25V300.5H442.5V302.5H441.5V303.5H440.5V305.5H439.5V306.5H438.5V307.5H437.5V307.75V310.25V310.5H438.5V310.75V313.25V313.5H439.5V313.75V321.25V321.5H438.5V321.75V324.25V324.5H437.5C437.5 324.75 437.5 325.333 437.5 326.25V326.5H436.5V328.5H435.5V329.5H434.5V330.5H432.5V331.5H431.5V332.5H430.5V333.5H429.5V334.5H428.5V334.75V345.25V345.5H429.5V345.75V360.25V360.5H428.5V361.5H429.5V362.5H428.5V362.75V366.25V366.5H427.5V366.75V369.25V369.5H426.5V369.75V372.25V372.5H425.5V374.5H424.5V375.5H423.5V376.5H422.5V377.5H421.5V378.5H420.5V379.5C420.25 379.5 419.667 379.5 418.75 379.5H418.5V380.5H416.5V381.5H415.5V382.5H415.25H411.75H411.5V383.5H411.25H407.75H407.5V384.5H407.25H402.75H402.5V385.5H402.25H376.75H376.5V384.5H376.25H370.75H370.5V383.5H368.5V382.5H368.25H356.75H356.5V383.5H354.5V384.5H353.5V383.5H352.5V384.5H352.25H349.75H349.5V385.5H349.25H346.75H346.5V386.5H346.25H343.75H343.5V387.5H342.5V388.5H342.25H339.75H339.5V389.5H338.5V390.5H336.5V391.5H335.5V392.5H333.5V393.5H332.5V394.5H332.25H329.75H329.5V396.5H328.5V397.5H326.5V398.5H325.5V400.5H324.5V401.5H323.5V402.5H322.5V404.5H321.5V405.5H320.5V406.5H319.5V407.5H318.5C318.5 407.75 318.5 408.333 318.5 409.25V409.5H317.5V411.5H318.5V412.5H319.5V413.5H320.5V414.5H321.5V416.5H322.5V418.5H323.5V418.75V421.25V421.5H324.5V421.75V426.25V426.5H325.5V428.5H324.5V428.75V431.25V431.5H323.5V433.5H322.5V433.75V436.25V436.5H321.5V437.5H320.5V438.5H319.5V439.5H318.5V440.5H317.5V441.5H316.5V442.5H316.25H313.75H313.5V443.5H313.25H310.75H310.5V444.5H310.25H299.75H299.5V443.5H298.5V442.5H298.25H295.75H295.5V441.5H294.5V440.5H293.5V439.5H292.5V438.5H291.5V437.5H290.5V436.5H289.5V434.5H288.5V434.25V430.75V430.5H287.5V430.25V421.75V421.5H286.5V420.5H285.5V419.5H284.5V418.5H284.25H281.75H281.5V416.5H280.5V417.5H279.5V416.5H278.5V415.5H278.25H275.75H275.5V414.5H273.5V412.5H273.25H270.75H270.5V411.5H268.5V410.5H266.5V409.5H264.5V408.5H262.5V407.5C262.25 407.5 261.667 407.5 260.75 407.5H260.5V406.5H258.5V405.5H257.5V404.5H255.5V403.5H255.25H252.75H252.5V402.5H251.5V401.5H250.5V400.5H250.25H247.75H247.5V399.5H245.5V398.5H244.5V397.5H242.5V396.5H240.5V395.5C240.25 395.5 239.667 395.5 238.75 395.5H238.5V394.5H236.5V393.5H235.5V392.5H233.5V391.5H233.25H230.75H230.5V390.5H229.5V389.5H227.5V388.5H227.25H224.75H224.5V387.5C224.25 387.5 223.667 387.5 222.75 387.5H222.5V386.5H220.5V387.5H219.5V388.5H219.25H216.75H216.5V389.5H215.5V390.5H215.25H212.75H212.5V391.5H212.25H200.75H200.5V390.5H200.25H197.75H197.5V389.5H196.5V388.5H195.5V387.5H194.5V386.5H192.5V385.5H191.5V383.5H190.5V381.5H189.5V379.5H188.5V379.25V368.75V368.5H189.5V368.25V365.75V365.5H190.5V363.5H191.5V362.5H192.5V360.5H194.5V359.5H195.5V358.5H196.5V357.5H198.5V356.5H199.5V355.5H199.75H203.25H203.5V354.5H203.75H210.25H210.5V355.5H210.75H213.25H213.5V356.5H215.5V357.5H215.75H219.25H219.5V356.5H220.5V355.5H221.5V354.5H222.5V353.5H223.5V352.5H224.5V351.5H225.5V350.5H227.5V349.5H228.5V347.5H229.5V346.5H230.5V345.5H231.5V344.5H232.5V343.5H233.5V342.5H234.5V341.5H235.5V340.5H236.5V339.5H237.5V337.5H239.5V336.5H240.5V334.5H241.5V333.5H242.5V332.5H243.5V331.5H244.5V330.5H245.5V329.5H246.5V327.5H247.5V326.5H248.5V325.5H249.5V324.5H250.5V322.5H251.5V321.5H252.5V320.5H253.5V318.5H254.5V317.5H255.5V316.5H256.5V314.5H257.5V313.5H258.5V312.5H259.5V311.5H260.5V309.5H261.5V308.5H262.5V306.5H263.5V305.5H264.5V303.5H265.5V302.5H266.5V300.5H267.5V300.25V296.75V296.5H266.5V295.5H265.5V294.5H264.5V293.5H263.5V292.5H262.5V290.5H261.5V288.5H260.5V287.5H258.5V287.25V284.75V284.5H257.5V283.5H256.5V282.5H255.5V280.5H254.5V279.5H253.5V278.5H252.5V278.25V275.75V275.5H251.5V274.5H250.5V273.5H249.5V272.5H248.5V270.5H247.5V269.5H246.5V269.25V266.75V266.5H245.5V265.5H244.5V263.5H243.5V262.5H242.5V262.25V259.75V259.5H240.5C240.5 259.25 240.5 258.667 240.5 257.75V257.5H239.5V255.5H238.5V254.5H237.5V254.25V251.75V251.5H236.5V250.5H235.5C235.5 250.25 235.5 249.667 235.5 248.75V248.5H234.5V246.5H233.5V245.5H232.5V243.5H231.5V241.5H230.5V239.5H229.5V237.5H228.5V237.25V234.75V234.5H227.5V233.5H226.5V231.5H225.5V229.5H224.5V227.5H223.5V225.5H222.5V225.25V221.75V221.5H221.5V220.5H220.5V218.5H219.5V217.5H218.5V217.25V213.75V213.5H217.5V211.5H216.5V211.25V208.75V208.5H215.5V206.5H214.5V206.25V203.75V203.5H213.5V203.25V200.75V200.5H212.5V200.25V197.75V197.5H211.5V196.5H210.5V195.5H209.5V194.5H209.25H204.75H204.5V193.5H204.25H201.75H201.5V192.5H201.25H198.75H198.5V191.5H197.5V190.5H195.5V189.5H194.5V188.5H193.5V187.5H192.5V186.5H191.5V185.5H190.5V183.5H189.5V181.5H188.5V181.25V178.75V178.5H187.5V178.25V170.75V170.5H186.5V169.5H187.5V169.25V166.75V166.5H188.5V166.25V163.75V163.5H189.5C189.5 163.25 189.5 162.667 189.5 161.75V161.5H190.5V159.5H191.5V158.5H192.5V156.5H194.5V155.5H195.5V154.5H196.5V153.5H197.5V152.5H199.5V151.5H200.5V150.5H200.75H218.25H218.5V149.5H219.5V148.5H220.5V147.5H221.5V146.5H222.5V144.5H223.5V143.5H224.5V141.5H225.5V140.5H226.5V139.5H227.5V138.5H228.5V137.5H229.5V136.5H230.5V135.5H231.5V134.5H232.5V133.5H233.5V132.5H234.5V130.5H235.5V129.5H236.5V128.5H238.5V127.5H239.5V126.5H240.5V125.5H241.5V124.5H242.5V123.5H243.5V122.5H244.5V121.5H245.5V120.5H246.5V119.5H247.5V118.5H248.5V117.5H249.5V116.5H250.5V115.5H251.5V114.5C251.75 114.5 252.333 114.5 253.25 114.5H253.5V113.5H255.5V112.5H256.5V111.5H257.5V110.5H258.5V109.5H259.5V108.5C259.75 108.5 260.333 108.5 261.25 108.5H261.5V107.5H263.5V106.5H264.5V105.5H265.5V104.5H266.5V103.5H268.5V102.5H269.5V101.5H270.5V101.25V94.75V94.5H269.5V92.5H268.5V91.5H268.25H260.75H260.5V90.5H260.25H244.75H244.5V89.5H243.5V90.5H241.5V89.5H240.5V90.5H239.5V89.5H239.25H233.75H233.5V90.5H233.25H224.75H224.5V91.5H222.5V92.5H221.5V94.5H220.5V94.75V97.25V97.5H218.5V98.5H217.5V99.5H216.5V100.5H214.5V101.5H214.25H211.75H211.5V102.5H211.25H201.75H201.5V101.5H200.5V100.5H198.5V98.5H197.5V97.5H196.5V96.5H195.5V94.5H194.5V92.5H193.5V92.25V83.75V83.5H194.5C194.5 83.25 194.5 82.6667 194.5 81.75V81.5H195.5V79.5H196.5V78.5H197.5V77.5H198.5V75.5H199.5V74.5H199.75H202.25H202.5V73.5H204.5V74.5H205.5V73.5H205.75H211.25H211.5V74.5H212.5V73.5H213.5V74.5H215.5V75.5H216.5V76.5H217.5V77.5H218.5V78.5H219.5V79.5H220.5V80.5H221.5V81.5H223.5V82.5H223.75H227.25H227.5V81.5H227.75H249.25H249.5V82.5H249.75H263.25H263.5V83.5H263.75H267.25H267.5V84.5H267.75H270.25H270.5V83.5H271.5V82.5H272.5V81.5H273.5V79.5H274.5V78.5H275.5V77.5H276.5V75.5H277.5V74.5H278.5V74.25V71.75V71.5H277.5V69.5H276.5V68.5H275.5V67.5H274.5C274.5 67.25 274.5 66.6667 274.5 65.75V65.5H273.5V63.5H272.5V62.5H271.5V60.5H270.5V59.5H269.5V58.5H268.5V56.5H267.5V55.5H266.5V54.5H265.5V53.5H264.5V51.5H263.5V50.5H262.5V49.5H261.5V47.5H260.5V46.5H258.5V44.5H257.5V43.5H256.5V42.5H255.5V41.5H254.5V40.5H253.5V39.5H252.5V38.5H251.5V37.5H250.5V36.5H249.5V35.5H248.5V34.5H246.5V33.5H245.5V32.5H245.25H241.75H241.5V33.5H240.5V34.5H240.25H237.75H237.5V35.5H235.5V36.5H235.25H227.75H227.5V35.5H225.5V34.5H225.25H222.75H222.5V33.5H220.5V32.5H219.5V31.5H218.5V30.5H217.5V29.5H216.5V29.25V26.75V26.5H215.5V24.5H214.5V23.5H213.5V23.25V14.75V14.5H214.5V13.5H213.5V12.5H214.5V11.5H215.5C215.5 11.25 215.5 10.6667 215.5 9.75V9.5H216.5V7.5H217.5V6.5H218.5V5.5H219.5V3.5H221.5V2.5H223.5V1.5H223.75H226.25H226.5V0.5ZM275.5 21.5V22.5H274.5V24.5H275.5V25.5H276H278.5V26.5H280.5V27.5H281H284.5V28.5H286.5V29.5H288.5V30.5H289H292.5V31.5H294.5V32.5H296.5V33.5H297H299.5V34.5H301.5V35.5H303.5V36.5H304H306.5V37.5H307.5V38.5H309.5V39.5H310H312.5V40.5H314.5V41.5H315.5V42.5H316H318.5V43.5H319.5V44.5H321.5V45.5H322C322.667 45.5 323.167 45.5 323.5 45.5V46.5H325.5V47.5H326.5V48.5H328.5V49.5H329.5V50.5H331.5V51.5H332C332.667 51.5 333.167 51.5 333.5 51.5V52.5H334.5V53.5H335.5V54.5H336H338.5V55.5H339.5V56.5H340.5V57.5H342.5V58.5H343H345.5V57.5H346H356.5V58.5H358.5V59.5H359.5V60.5H361.5V62.5H362.5V63C362.5 63.6667 362.5 64.1667 362.5 64.5H363.5V65.5H364.5V67.5H365.5V68.5H366H370.5V69.5H371H376.5V70.5H377H379.5V71.5H381.5V72.5H382H385.5V73.5H387.5V74.5H389.5V73.5H390.5V71.5H389.5C389.5 70.5 389.5 69.8333 389.5 69.5H388.5V68.5H387.5V67.5H386.5V66.5H385.5V65.5H384.5V64.5H383.5V63.5H382.5V62.5H381.5V60.5H380.5V59.5H378.5V58.5H377.5V57.5H376.5V56.5H375.5V55.5H374.5V54.5H373.5V53.5H371.5V52.5H370.5V51.5H369.5V50.5H368.5V49.5H366.5V48.5H365.5V47.5H363.5V46.5H362.5V45.5H360.5V44.5H359.5V43.5H357.5V42.5H356.5V41.5H354.5V40.5H352H351.5V39.5H350.5V38.5H348.5V37.5H346H345.5V36.5H344.5V35.5H342.5V34.5H340H339.5V33.5H337.5V32.5H335.5V31.5H332H331.5V30.5H329.5V29.5H327H326.5V28.5H322H321.5V27.5H319H318.5V26.5H315H314.5V25.5H309H308.5V24.5H303H302.5V23.5H298H297.5V22.5H278H277.5V21.5H275.5ZM257.5 29.5V30V32.5H258.5V33.5H259.5V34.5H260.5V35.5H261.5V36.5H262.5V37.5H263.5V38.5H264.5V39.5H265.5V41.5H266.5V42.5H268.5V44.5H269.5V45.5H270.5V46.5H271.5V47.5H272.5V48.5H273.5V50.5H274.5V51C274.5 51.6667 274.5 52.1667 274.5 52.5H275.5V53.5H276.5V54.5H277.5V56.5H278.5V57.5H279.5V58.5H280.5V60.5H281.5V61.5H282.5V62.5H283.5V63V65.5H284.5V66.5H285.5V68.5H286.5V69.5H287H290.5V70.5H291.5V71.5H292H295.5V70.5H297.5V69.5H298.5V70.5H300.5V71.5H302.5V72.5H303H305.5V73.5H306.5V74.5H307.5V75.5H308.5V76.5H309.5V77.5H310.5V78.5H311.5V77.5H312.5V78.5H314.5V77.5H315.5V76.5H317.5V75.5H318H320.5V74.5H322.5V73.5H323H325.5V72.5H326H330.5V71.5H331.5V70.5H332H335.5V69.5H336.5V67V66.5H337.5V65.5H336.5V64.5H335.5V63.5H334.5V62.5H333.5V61.5H331.5V60.5C330.5 60.5 329.833 60.5 329.5 60.5V59.5H328.5V58.5H326.5V57.5H324.5V56.5H323.5V55.5H321.5V54.5C320.5 54.5 319.833 54.5 319.5 54.5V53.5H318.5V52.5H316.5V51.5H315.5V50.5H314.5V49.5H312H311.5V48.5H309.5V47.5H308.5V46.5H306H305.5V45.5H303.5V44.5H302.5V43.5H300H299.5V42.5H297.5V43.5H296.5V41.5H295.5V40.5H293H292.5V39.5H289H288.5V38.5H287.5V37.5H285H284.5V36.5H282H281.5V35.5H279.5V34.5H276H275.5V33.5H272H271.5V32.5H269.5V31.5H265H264.5V30.5H261H260.5V29.5H258H257.5ZM368.5 77.5V78.5H367.5V79.5H368.5V80.5H370.5V82.5H371.5V83.5H372.5V84.5H373.5V86.5H374.5V87.5H376.5V89.5H377.5V90.5H378.5V91.5H379.5V93.5H380.5V94.5H381.5V95.5H382.5V96.5H384.5V97V99.5H385.5V101.5H386.5V102.5H387.5V104.5H388.5V105.5H389.5V106.5H390.5V108.5H391.5V109C391.5 109.667 391.5 110.167 391.5 110.5H392.5V111.5H393.5V113.5H394.5V114V116.5H395.5V117.5H396.5V119.5H397.5V120.5H398.5V122.5H399.5V123C399.5 123.667 399.5 124.167 399.5 124.5H400.5V125V128.5H401.5V129.5H402.5V130V133.5H403.5V134V136.5H404.5V137.5H405.5V138V141.5H406.5V142V145.5H407.5V147.5H408.5V148V153.5H409.5V154V158.5H410.5V159V163.5H411.5V164V175.5H412.5V176.5H413.5V175.5H414.5V171V170.5H415.5V165V164.5H416.5V162V161.5H417.5V156V155.5H418.5V150V149.5H419.5V147V146.5H420.5V136V135.5H419.5V133V132.5H418.5V125V124.5H417.5V121V120.5H416.5V118.5H415.5V116V115.5H414.5V112V111.5H413.5V110.5H412.5V108.5H411.5C411.5 107.5 411.5 106.833 411.5 106.5H410.5V105.5H409.5V103.5H408.5C408.5 102.5 408.5 101.833 408.5 101.5H407.5V100.5H406.5V99.5H405.5V97.5H404.5V96.5H403.5V95.5H402.5V94.5H401.5V93.5H400.5V92.5H399.5V91.5H398.5V90.5H397.5V89.5H396.5V88.5H395.5V87.5H393H392.5V86.5H391.5V85.5H390.5V84.5H388H387.5V83.5H386.5V82.5H384H383.5V81.5H381.5V80.5H380.5V79.5H376H375.5V78.5H372H371.5V77.5H369H368.5ZM332.5 79.5V80.5H331.5V81.5H328H327.5V82.5H324H323.5V83.5H322.5V84.5H320H319.5V85.5H317H316.5V86.5H315.5V87V90.5H316.5V92.5H315.5V93.5H316.5V95.5H317.5V96.5H318H321.5V97.5H322H324.5V98.5H325.5V99.5H326H328.5V100.5H329H331.5V101.5H332.5V102.5H333H335.5V103.5H337.5V104.5H338.5V105.5H339H341.5V106.5H343.5V107.5H344.5V108.5H345H347.5V109.5H348.5V110.5H349.5V111.5H350H352.5V112.5H353.5V113.5H355.5V114.5H356.5V115.5H358.5V116.5H359.5V117.5H361.5V118.5H362C362.667 118.5 363.167 118.5 363.5 118.5V119.5H364.5V120.5H365.5V121.5H367.5V122.5H368.5V123.5H370.5V125.5H371.5V126.5H372H374.5V127.5H375.5V128.5H376.5V129.5H377.5V130.5H378.5V131.5H379.5V132.5H380.5V133.5H381.5V134.5H382.5V135.5H384.5V136.5H385.5V137.5H386.5V138.5H387.5V139.5H388.5V140.5H389.5V141.5H390.5V142.5H391.5V143.5H392.5V144.5H393.5V146.5H394.5V147.5H395.5V148.5H396.5V147.5H397.5V145V144.5H396.5V141V140.5H395.5V138.5H394.5V136V135.5H393.5V133V132.5H392.5V131.5H391.5V129V128.5H390.5V126V125.5H389.5V124.5H388.5V122.5H387.5C387.5 121.5 387.5 120.833 387.5 120.5H386.5V119.5H385.5V117V116.5H384.5V114.5H383.5V113.5H382.5V112.5H381.5V110V109.5H380.5V108.5H379.5V107.5H378.5V105.5H377.5V104.5H376.5V103.5H375.5V101.5H374.5V100.5H373.5V99.5H372.5V97.5H371.5V96.5H370.5V95.5H369.5V94.5H368.5V93.5H367.5V92.5H366.5V90.5H365.5V89.5H363.5V87.5H362.5V86.5H361.5V85.5H359.5V84.5H357H356.5V85.5H346H345.5V84.5H343.5V83.5H342.5V82.5H340.5V81.5H339.5V80.5H338.5V79.5H333H332.5ZM313.5 103.5V104.5H312.5V106.5H311.5V107.5H310.5V108.5H309.5V109.5H308.5V110.5H307.5V111.5H306.5V112V114.5H307.5V115V119.5H308.5V120.5H309.5V121V125.5H310.5V126V131.5H311.5V132.5H312.5V133V139.5H313.5V140V146.5H314.5V147.5H315.5V148V156.5H316.5V157V169.5H317.5V170.5H318.5V171.5H319H323.5V172.5H325.5V173.5H326.5V174.5H328.5V176.5H329.5V177.5H331.5V179.5H332.5V180.5H333.5V182.5H334.5V183V185.5H335.5V186.5H336.5V187V199.5H335.5V200V203.5H336.5V204.5H337.5V205.5H338.5V206.5H339.5V207.5H340.5V208.5H342.5V209.5H343.5V210.5H344.5V211.5H345.5V212.5H346.5V213.5H347.5V214.5H348.5V215.5H349.5V216.5H350.5V217.5H351.5V218.5H352.5V220.5H353.5V221.5H354.5V222.5H355.5V223.5H356.5V224.5H357.5V225.5H358.5V227.5H359.5V228.5H361.5V230.5H362.5V231.5H363.5V233.5H364.5V234.5H365.5V235.5H366.5V236.5H367.5V237.5H368.5V238.5H369.5V240.5H370.5V241C370.5 241.667 370.5 242.167 370.5 242.5H371.5V243.5H373.5V244.5H374.5V245.5H376.5V244.5H377H383.5V245.5H384.5V244.5H385.5V243.5H386.5V242.5H387.5V240.5H388.5C388.5 239.5 388.5 238.833 388.5 238.5H389.5V236.5H390.5V234V233.5H391.5V231.5H392.5V230.5H393.5V227V226.5H394.5V224V223.5H395.5V222.5H396.5V218V217.5H397.5V214V213.5H398.5V211.5H399.5V207V206.5H400.5V200V199.5H401.5V197.5H402.5V173V172.5H401.5V171.5H400.5V170.5H399.5V168.5H398.5V167.5H397.5V165.5H396.5V163.5H395.5V162.5H394.5V161.5H393.5V160.5H392.5V158.5H391.5V157.5H390.5V156.5H389.5V155.5H388.5V154.5H387.5V152.5H386.5V151.5H385.5V150.5H384.5V149.5H383.5V148.5H382.5V147.5H381.5V146.5H380.5V145.5H378.5V143.5H377.5V142.5H375.5V140.5H374.5V139.5H372.5V137.5H371.5V136.5H369.5V135.5H368.5V134.5H367.5V133.5H365.5V132.5H364.5V131.5H363.5V130.5H362.5V129.5H360.5V128.5H359.5V127.5H357.5V126.5H356.5V125.5H355.5V124.5H353.5V123.5C352.5 123.5 351.833 123.5 351.5 123.5V122.5H350.5V121.5H348.5V120.5H346.5V119.5H345.5V118.5H343.5V117.5C342.5 117.5 341.833 117.5 341.5 117.5V116.5H340.5V115.5H338H337.5V114.5H335.5V113.5H334.5V112.5H332H331.5V111.5H329.5V110.5H328.5V109.5H326H325.5V108.5H323H322.5V107.5H321.5V106.5H319H318.5V105.5H316H315.5V104.5H314.5V103.5H313.5ZM273.5 109.5V110.5H272.5V111.5H271.5V112.5H269.5V113.5H268.5V114.5H266.5V115.5H265.5V116.5H264.5V117.5H263.5V118.5H261.5V119.5H260.5V120.5H259.5V121.5H258.5V122.5H257.5V123.5H256.5V124.5H254.5V125.5H253.5V126.5H252.5V127.5H251.5V128.5H250.5V129.5H249.5V130.5H248.5V131.5H247.5V132.5H245.5V133.5H244.5V134.5H243.5V135.5H242.5V136.5H241.5V137.5H240.5V138.5H239.5V139.5H238.5V140.5H237.5V142.5H236.5V143.5H235.5V145.5H233.5V146.5H232.5V148.5H230.5V149.5H229.5V151.5H228.5V153.5H227.5V154.5H226.5V156.5H227.5V157.5H228.5V159.5H229.5V160V162.5H230.5V163.5H231.5V164V166.5H232.5V167V176.5H231.5V177V181.5H230.5V182.5H229.5V184.5H228.5V185C228.5 185.667 228.5 186.167 228.5 186.5H227.5V187.5H226.5V188.5H225.5V189.5H224.5V190.5H222.5V191.5H221.5V192.5H220.5V193V197.5C220.5 197.5 220.667 197.5 221 197.5C221.667 197.5 222.167 197.5 222.5 197.5V198V201.5H223.5V202V205.5C223.5 205.5 223.667 205.5 224 205.5C224.667 205.5 225.167 205.5 225.5 205.5V206V209.5H226.5V210V212.5H227.5V213.5H228.5V214V216.5H229.5V217V219.5H230.5V220.5H231.5V221.5H232.5V222V225.5H233.5V227.5H234.5V229.5H235.5V231.5H236.5V232.5H237.5V234.5H238.5V235V237.5H240.5V238V240.5H241.5V241V243.5H242.5V244.5H243.5V246.5H244.5V247C244.5 247.667 244.5 248.167 244.5 248.5H245.5V249.5H246.5V251.5H247.5V252C247.5 252.667 247.5 253.167 247.5 253.5H248.5V254.5H249.5V256.5H250.5V257C250.5 257.667 250.5 258.167 250.5 258.5H251.5V259.5H252.5V261.5H253.5V262C253.5 262.667 253.5 263.167 253.5 263.5H254.5V264.5H255.5V266.5H256.5V267.5H257.5V268.5H258.5V270.5H259.5V271C259.5 271.667 259.5 272.167 259.5 272.5H260.5V273.5H261.5V275.5H262.5V276.5H263.5V277.5H264.5V279.5H265.5V280C265.5 280.667 265.5 281.167 265.5 281.5H266.5V282.5H267.5V283.5H268.5V285.5H269.5V286.5H270.5V287.5H271.5V288.5H272.5V289.5H273.5V288.5H274.5V286.5H275.5V285.5H276.5V283.5H277.5C277.5 282.5 277.5 281.833 277.5 281.5H278.5V280.5H279.5V278.5H280.5V276.5H281.5V275.5H282.5V273V272.5H283.5V270.5H284.5V269.5H285.5V267V266.5H286.5V264.5H287.5V263.5H288.5V261V260.5H289.5V258V257.5H290.5V256.5H291.5V254V253.5H292.5V251V250.5H293.5V249.5H294.5V246V245.5H295.5V243V242.5H296.5V241.5H297.5V238V237.5H298.5V234V233.5H299.5V232.5H300.5V227V226.5H301.5V223V222.5H303.5V217V216.5H304.5V214.5H303.5V213.5H301.5V212.5H300.5V211.5H299.5V210.5H298.5V209.5H297.5V208.5H296.5V207.5H295.5V206.5H294.5V204.5H293.5V203.5H292.5V200V199.5H291.5V186V185.5H292.5V183.5H293.5V182.5H294.5V180V179.5H295.5V178.5H296.5V177.5H297.5V176.5H298.5V175.5H299.5V174.5H301.5V173.5H302.5V172.5H303H305.5V171.5H306.5V169.5H307.5V161V160.5H306.5V152V151.5H305.5V149.5H304.5V143V142.5H303.5V137V136.5H302.5V134.5H301.5V130V129.5H300.5V124V123.5H299.5V122.5H298.5V120V119.5H297.5V117V116.5H296.5V115.5H286H285.5V114.5H283H282.5V113.5H281.5V112.5H279.5V111.5H277.5V110.5H276.5V109.5H274H273.5ZM416.5 201.5V202.5H415.5V203V205.5H414.5V206V209.5H413.5V210.5H412.5V211V213.5H411.5V214V216.5H410.5V217.5H409.5V218V220.5H408.5V221V223.5H407.5V224.5H406.5V225V227.5H405.5V229.5H404.5V230.5H403.5V231V233.5H402.5V235.5H401.5V236.5H400.5V238.5H399.5V239C399.5 239.667 399.5 240.167 399.5 240.5H398.5V241.5H397.5V242V244.5H396.5V246.5H395.5V247.5H394.5V248V250.5H393.5V252.5H394.5V253V255.5H395.5V256.5H396.5V257V267.5H395.5V268.5H394.5V269V271.5H393.5V272V274.5H394.5V276.5H395.5V277.5H396.5V279.5H397.5V280C397.5 280.667 397.5 281.167 397.5 281.5H398.5V282.5H399.5V284.5H400.5V285C400.5 285.667 400.5 286.167 400.5 286.5H401.5V287.5H402.5V289.5H403.5V290C403.5 290.667 403.5 291.167 403.5 291.5H404.5V292.5H405.5V294.5H406.5V295V297.5H407.5V298.5H408.5V300.5H409.5V301C409.5 301.667 409.5 302.167 409.5 302.5H411.5V303V305.5H412.5V306V308.5H413.5V309.5H414.5V311.5H415.5V312V314.5H416.5V315.5H417.5V317.5H418.5V318V320.5H419.5V321.5H420.5V322V324.5H421.5V325.5H422.5V326.5H423.5V325.5H425.5V324.5H427.5V323.5H428.5V322.5H429.5V320.5H430.5V315V314.5H429.5V313.5H428.5V312.5H427.5V311.5H426.5V310.5H425.5V309.5H424.5V304V303.5H425.5V302.5H426.5V301.5H427H429.5V300.5H431.5V299.5H432.5V298.5H433.5V297.5H434.5V296.5H435.5V291V290.5H434.5V289.5H433.5V286V285.5H432.5V282V281.5H431.5V280.5H430.5V272V271.5H431.5V270.5H432.5V269.5H433.5V268.5H434.5V267.5H435.5V266.5H436.5V265.5H437.5V264.5H439.5V263.5H440C440.667 263.5 441.167 263.5 441.5 263.5V262.5H443.5V261.5H444H446.5V260.5H447.5V259.5H449.5V258.5H450C450.667 258.5 451.167 258.5 451.5 258.5V257.5H452.5V256.5H454.5V255.5H455.5V254.5H456.5V252V251.5H455.5V250.5H454.5V248.5H453.5C453.5 247.5 453.5 246.833 453.5 246.5H452.5V245.5H451.5V243.5H450.5C450.5 242.5 450.5 241.833 450.5 241.5H449.5V240.5H447.5V238.5H446.5V237.5H445.5V236.5H444.5V235.5H443.5V234.5H442.5V233.5H441.5V231.5H440.5V230.5H439.5V229.5H438.5V227.5H437.5V226.5H436.5V225.5H435.5V224.5H434.5V223.5H433.5V221.5H432.5V220.5H431.5V219.5H430.5V218.5H429.5V216.5H428.5V215.5H427.5V214.5H426.5V212.5H425.5V211.5H424.5V209.5H423.5C423.5 208.5 423.5 207.833 423.5 207.5H422.5V206.5H421.5V204.5H420.5C420.5 203.5 420.5 202.833 420.5 202.5H419.5V201.5H417H416.5ZM328.5 210.5V211.5H326.5V212.5H325.5V213.5H323.5V214.5H319H318.5V215.5H317.5V216.5H315H314.5V217.5H313.5V219.5H312.5V220V225.5H311.5V226.5H310.5V227V231.5H309.5V232V235.5H308.5V236.5H307.5V237V240.5H306.5V241V244.5H305.5V245.5H304.5V246V249.5H303.5V250V252.5H302.5V253.5H301.5V254V256.5H300.5V257V259.5H299.5V260.5H298.5V261V263.5H297.5V265.5H296.5V266.5H295.5V267V269.5H294.5V271.5H293.5V272.5H292.5V273V275.5H291.5V277.5H290.5V278.5H289.5V279V281.5H288.5V283.5H287.5V284.5H286.5V285V287.5H285.5V289.5H284.5V290.5H283.5V292.5H282.5V293C282.5 293.667 282.5 294.167 282.5 294.5H281.5V295.5H280.5V296.5H279.5V297V299.5H280.5V300.5H281.5V301.5H282.5V302.5H283.5V303.5H284.5V305.5H285.5V306.5H286.5V308.5H287.5V309.5H289.5V311.5H290.5V312.5H292.5V314.5H293.5V315.5H294.5V316.5H295.5V317.5H297.5V316.5H298H309.5V317.5H310.5V318.5H311H313.5V319.5H314H317.5V318.5H318.5V317.5H319.5V316.5H320.5V315.5H321.5V314.5H323.5V313.5H324.5V312.5H326.5V311.5H327.5V309.5H329.5V308.5H330.5V307.5H331.5V306.5H332.5V305.5H333.5V304.5H335.5V303.5H336.5V302.5H337.5V301.5H338.5V300.5H339.5V299.5H340.5V298.5H341.5V297.5H342.5V296.5H343.5V295.5H344.5V294.5H345.5V293.5H346.5V292.5H347.5V291.5H348.5V290.5H349.5V289.5H350.5V288.5H351.5V287.5H352.5V286.5H353.5V285.5H354.5V284.5H355.5V283.5H356.5V282.5H357.5V281.5H358.5V279V278.5H360.5V277.5H361.5V276.5H362.5V275.5H363.5V273.5H365.5V272.5H366.5V271.5H365.5V270.5H364.5V268V267.5H363.5V256V255.5H364.5V253.5H365.5V252.5H366.5V250.5H365.5V249.5H364.5V248.5H363.5V246.5H362.5V245.5H361.5V244.5H360.5V242.5H359.5V241.5H357.5V239.5H356.5V238.5H355.5V236.5H354.5V235.5H353.5V234.5H352.5V233.5H351.5V232.5H350.5V231.5H349.5V230.5H348.5V229.5H347.5V228.5H346.5V227.5H345.5V225.5H344.5V224.5H342.5V222.5H341.5V221.5H339.5V219.5H338.5V218.5H337.5V217.5H336.5V216.5H335.5V215.5H334.5V214.5H332.5V213.5H331.5V212.5H330.5V211.5H329.5V210.5H328.5ZM373.5 277.5V278.5H372.5V279.5H371.5V280.5H370.5V281.5H369.5V283.5H368.5V284.5H367.5V286.5H365.5V287.5H364.5V289.5H362.5V290.5H361.5V292.5H360.5V293.5H359.5V294.5H358.5V295.5H357.5V296.5H356.5V297.5H355.5V298.5H354.5V299.5H353.5V300.5H352.5V301.5H351.5V302.5H350.5V303.5H349.5V304.5H347.5V305.5H346.5V307.5H344.5V308.5H343.5V310.5H341.5V311.5H340.5V313.5H338.5V314.5H337.5V315.5H335.5V316.5H334.5V317.5H333.5V318.5H332.5V319.5H331.5V320.5H329.5V321.5H328.5V322.5H326.5V323.5H325.5V325.5H323.5V326.5H322.5V327.5H320.5V328.5H319.5V329V338.5H318.5V339.5H319.5V341.5H320.5V342.5H322.5V344.5H323.5V345.5H325.5V346.5H326C326.667 346.5 327.167 346.5 327.5 346.5V347.5H328.5V348.5H329.5V349.5H330.5V350.5H331.5V351.5H333.5V352.5H334.5V353.5H335.5V354.5H337.5V355.5H338C338.667 355.5 339.167 355.5 339.5 355.5V356.5H340.5V357.5H341.5V358.5H343.5V359.5H344.5V360.5H346.5V361.5H348.5V362.5H349.5V363.5H350H352.5V364.5H353.5V365.5H354.5V366.5H356.5V367.5H357H359.5V368.5H360.5V369.5H361H363.5V370.5H364H366.5V371.5H367.5V372.5H368H370.5V373.5H371H375.5V374.5H376.5V375.5H377H381.5V376.5H382H403.5V375.5H404H408.5V374.5H409.5V373.5H410H412.5V372.5H414.5V371.5H415.5V370.5H416.5V369.5H417.5V367V366.5H418.5V364.5H419.5V363.5H420.5V346V345.5H419.5V344.5H418.5V342V341.5H417.5V339V338.5H416.5V337.5H415.5V335V334.5H414.5V332V331.5H413.5V330.5H412.5V328V327.5H411.5V325V324.5H410.5V323.5H409.5V322.5H408.5V320V319.5H407.5V317.5H406.5V316.5H405.5V314V313.5H404.5V312.5H403.5V310V309.5H402.5V307.5H401.5V306.5H400.5V304.5H399.5V302V301.5H398.5V300.5H397.5V298.5H396.5C396.5 297.5 396.5 296.833 396.5 296.5H395.5V295.5H394.5V293.5H393.5C393.5 292.5 393.5 291.833 393.5 291.5H392.5V290.5H391.5V288.5H390.5C390.5 287.5 390.5 286.833 390.5 286.5H389.5V285.5H388.5V283.5H387.5C387.5 282.5 387.5 281.833 387.5 281.5H386.5V280.5H385.5V278.5H384.5V277.5H382.5V278.5C381.5 278.5 380.833 278.5 380.5 278.5V279.5H379.5V278.5H377.5V277.5H376.5V278.5H375.5V277.5H373.5ZM272.5 307.5V308.5H271.5V309V311.5H270.5V312.5H269.5V313.5H268.5V315.5H267.5V316.5H266.5V317.5H265.5V319.5H264.5V320C264.5 320.667 264.5 321.167 264.5 321.5H263.5V322.5H262.5V323.5H261.5V324.5H260.5V325.5H259.5V327.5H258.5V328.5H257.5V329.5H256.5V331.5H255.5V332.5H254.5V334.5H253.5V335.5H252.5V336.5H251.5V337.5H250.5V338.5H249.5V339.5H248.5V340.5H247.5V341.5H246.5V342.5H245.5V343.5H244.5V345.5H243.5V346.5H242.5V347.5H241.5V349.5H239.5V350.5H238.5V352.5H236.5V353.5H235.5V355.5H233.5V356.5H232.5V358.5H230.5V359.5H229.5V361.5H228.5V362.5H229.5V363.5H231.5V362.5H233.5V361.5H234H237.5V360.5H238H241.5V359.5H242.5V358.5H243H245.5V357.5H246H249.5V356.5H250.5V355.5H251H253.5V354.5H254H257.5V353.5H258.5V352.5H260.5V351.5H261H263.5V350.5H264.5V349.5H265H267.5V348.5H268H270.5V347.5H271.5V346.5H273.5V345.5H274C274.667 345.5 275.167 345.5 275.5 345.5V344.5H276.5V343.5H277H279.5V342.5H281.5V341.5H282.5V340.5H284.5V339.5H285H287.5V338.5H288.5V336V335.5H287.5V334.5H286.5V331V330.5H287.5V329.5H288.5V324V323.5H287.5V322.5H286.5V321.5H285.5V320.5H284.5V319.5H283.5V317.5H282.5V316.5H281.5V315.5H280.5V314.5H279.5V313.5H278.5V312.5H277.5V310.5H276.5V308.5H275.5V307.5H273H272.5ZM293.5 346.5V347.5H292.5V348V351.5H289H288.5V350.5H287.5V349.5H286.5V350.5H285.5V351.5H283H282.5V352.5H280.5V353.5H279.5V354.5H277.5V355.5H275H274.5V356.5H273.5V357.5H271.5V358.5H269H268.5V359.5H267.5V360.5H264H263.5V361.5H261H260.5V362.5H259.5V363.5H257.5V364.5H254H253.5V365.5H252.5V366.5H249H248.5V367.5H245H244.5V369.5H241H240.5V370.5H237H236.5V371.5H235.5V372.5H231H230.5V373.5H228H227.5V374.5H226.5V376.5H225.5V377.5H226.5V378.5H227.5V379.5H229.5V380.5H230.5V381.5H231H233.5V382.5H235.5V383.5H236.5V384.5H237H239.5V385.5H241.5V386.5H242.5V387.5H244.5V388.5H245C245.667 388.5 246.167 388.5 246.5 388.5V389.5H247.5V390.5H248H250.5V391.5H252.5V392.5H253.5V393.5H254H256.5V394.5H258.5V395.5H259.5V396.5H261.5V397.5H262C262.667 397.5 263.167 397.5 263.5 397.5V398.5H264.5V399.5H266.5V400.5H267C267.667 400.5 268.167 400.5 268.5 400.5V401.5H269.5V402.5H270H272.5V403.5H274.5V404.5H275.5V405.5H276H278.5V406.5H280.5V407.5H281.5V408.5H282H284.5V409.5H286.5V410.5H287.5V411.5H289.5V412.5H290H292.5V411.5H294.5V410.5H295.5V409.5H296.5V408.5H297H300.5V407.5H301.5V406.5H302H309.5V405.5H310.5V403.5H311.5V402.5H312.5V400.5H313.5V399.5H314.5V398.5H315.5V396.5H317.5V395.5H318.5V393.5H319.5V392.5H320.5V391.5H321.5V390.5H323.5V389.5H324.5V387.5H326.5V386.5H327.5V385.5H329.5V384.5H330.5V383.5H331.5V382.5H333.5V381.5H334H336.5V380.5H337.5V379.5H339.5V378.5H340H343.5V377.5H344.5V376.5H345H348.5V375.5H349.5V374.5H348.5V373.5H347.5V372.5H346.5V371.5H345.5V370.5H344.5V371.5H343.5V370.5H342.5V369.5H340.5V368.5H339.5V367.5H338.5V366.5H336.5V365.5H335.5V364.5H333.5V363.5C332.5 363.5 331.833 363.5 331.5 363.5V362.5H330.5V361.5H329.5V360.5H328.5V359.5H327.5V358.5H325H324.5V356.5H323.5V355.5H321.5V354.5C320.5 354.5 319.833 354.5 319.5 354.5V353.5H318.5V352.5H317.5V351.5H316.5V350.5H315.5V349.5H314.5V348.5H313.5V347.5H312.5V346.5H311.5V347.5H310.5V348.5H306H305.5V349.5H303.5V350.5H302.5V349.5H301.5V348.5H298H297.5V347.5H296.5V346.5H294H293.5Z" stroke="#469BC7"/>
<path d="M118.5 24.5H118.75H129.25H129.5V25.5H130.5V26.5H132.5V27.5H132.75H135.25H135.5V28.5H136.5V29.5H137.5V30.5H138.5V32.5H139.5V32.75V35.25V35.5H140.5V37.5H141.5V37.75V47.25V47.5H140.5V49.5H139.5V49.75V52.25V52.5H138.5V53.5H137.5V54.5H136.5V55.5H135.5V56.5H133.5V58.5H133.25H129.75H129.5V59.5H127.5V60.5H125.5V59.5H124.5V60.5H122.5V59.5H121.5V60.5H121.25H118.75H118.5V59.5H117.5V58.5H117.25H114.75H114.5V57.5H113.5V56.5H111.5V55.5H110.5V54.5H109.5V53.5H108.5V51.5H107.5V50.5H106.5V48.5H105.5V48.25V36.75V36.5H106.5V35.5H107.5V35.25V32.75V32.5H108.5V31.5H109.5V30.5H110.5V29.5H111.5V27.5H113.5V26.5H115.5V25.5H115.75H118.25H118.5V24.5Z" fill="#469BC7" stroke="#469BC7"/>
<path d="M17.5 84.5H17.75H32.25H32.5V85.5H33.5V86.5H35.5V87.5H35.75H38.25H38.5V88.5H39.5V89.5H40.5V90.5H41.5V91.5H42.5V92.5H43.5V93.5H44.5V94.5H45.5V96.5H46.5V96.75V99.25V99.5H47.5V101.5H48.5V101.75V109.25V109.5H49.5V110.5H48.5V110.75V114.25V114.5H47.5V116.5H46.5V116.75V119.25V119.5H45.5V121.5H44.5V122.5H43.5V124.5H42.5V125.5H41.5V126.5H40.5V127.5C40.25 127.5 39.6667 127.5 38.75 127.5H38.5V128.5H36.5V129.5H35.5V130.5H35.25H31.75H31.5V131.5H29.5V132.5H29.25H21.75H21.5V131.5H21.25H17.75H17.5V130.5H17.25H14.75H14.5V129.5H13.5V128.5C13.25 128.5 12.6667 128.5 11.75 128.5H11.5V127.5H9.5V126.5H8.5V125.5H7.5V124.5H6.5V122.5H5.5V121.5H4.5V120.5H3.5V120.25V116.75V116.5H2.5V115.5H1.5V115.25V110.75V110.5H0.5V110.25V106.75V106.5H1.5V106.25V101.75V101.5H2.5V101.25V98.75V98.5H3.5V98.25V95.75V95.5H4.5V94.5H5.5V93.5H6.5V92.5H7.5V90.5H9.5V89.5H10.5V88.5H11.5V87.5H11.75H14.25H14.5V86.5H15.5V85.5H17.5V84.5Z" fill="#469BC7" stroke="#469BC7"/>
<path d="M135.5 117.5H135.75H140.25H140.5V118.5H140.75H143.25H143.5V119.5C143.75 119.5 144.333 119.5 145.25 119.5H145.5V120.5H147.5V121.5H148.5V122.5H149.5V123.5H150.5V124.5H151.5V126.5H152.5V126.75V130.25V130.5H153.5V130.75V134.25V134.5H152.5V135.5H153.5V135.75V138.25V138.5H152.5C152.5 138.75 152.5 139.333 152.5 140.25V140.5H151.5V142.5H150.5V143.5H149.5V144.5H148.5V145.5H147.5V146.5H146.5V147.5H144.5V148.5H144.25H131.75H131.5V147.5H129.5V146.5H127.5V145.5H126.5V143.5H124.5V141.5H123.5V141.25V138.75V138.5H122.5V138.25V134.75V134.5H121.5V133.5H122.5V131.5H121.5V130.5H122.5V128.5H123.5V128.25V125.75V125.5H124.5V123.5H125.5V122.5H126.5V121.5H127.5V120.5H128.5V119.5H129.5V120.5H130.5V119.5H131.5V118.5H131.75H135.25H135.5V117.5Z" fill="#469BC7" stroke="#469BC7"/>
<path d="M100.5 212.5H100.75H108.25H108.5V213.5H108.75H113.25H113.5V214.5H115.5V215.5H116.5V216.5H118.5V217.5H119.5V218.5H120.5V219.5H121.5V220.5H122.5V221.5H123.5V223.5H124.5V225.5H125.5V225.75V228.25V228.5H126.5V228.75V232.25V232.5H127.5V232.75V237.25V237.5H126.5V237.75V243.25V243.5H125.5C125.5 243.75 125.5 244.333 125.5 245.25V245.5H124.5V247.5H123.5V248.5H122.5V250.5H121.5V251.5H120.5V252.5H119.5V253.5H118.5V254.5H118.25H115.75H115.5V255.5H114.5V256.5H112.5V257.5H111.5V256.5H110.5V257.5H108.5V258.5H107.5V257.5H106.5V258.5H106.25H101.75H101.5V257.5H101.25H98.75H98.5V256.5H98.25H94.75H94.5V255.5H93.5V254.5C93.25 254.5 92.6667 254.5 91.75 254.5H91.5V253.5H89.5V252.5H88.5V251.5H87.5V249.5H86.5V248.5H85.5V247.5H84.5V245.5H83.5V243.5H82.5V243.25V240.75V240.5H81.5V240.25V230.75V230.5H82.5V230.25V227.75V227.5H83.5V225.5H84.5V225.25V222.75V222.5H85.5V221.5H86.5V220.5H87.5V218.5H89.5V217.5H90.5V216.5C90.75 216.5 91.3333 216.5 92.25 216.5H92.5V215.5H94.5V214.5H95.5V213.5H95.75H100.25H100.5V212.5Z" fill="#469BC7" stroke="#469BC7"/>
<path d="M200.5 277.5H200.75H206.25H206.5V278.5H206.75H209.25H209.5V279.5C209.75 279.5 210.333 279.5 211.25 279.5H211.5V280.5H213.5V281.5H214.5V282.5H215.5V283.5H216.5C216.5 283.75 216.5 284.333 216.5 285.25V285.5H217.5V287.5H218.5V287.75V291.25V291.5H219.5V291.75V294.25V294.5H218.5V294.75V299.25V299.5H217.5V299.75V302.25V302.5H216.5V303.5H215.5V304.5H214.5V305.5H213.5V306.5H212.5V307.5H210.5V308.5H208.5V309.5H208.25H205.75H205.5V310.5H204.5V309.5H204.25H198.75H198.5V308.5H197.5V307.5H196.5V308.5H195.5V307.5H194.5V305.5H193.5V306.5H192.5V304.5H190.5V302.5H189.5V300.5H188.5V300.25V297.75V297.5H187.5V297.25V290.75V290.5H188.5V290.25V287.75V287.5H189.5V287.25V284.75V284.5H190.5V283.5H191.5V282.5H192.5V281.5H193.5V280.5H195.5V279.5H197.5V278.5H197.75H200.25H200.5V277.5Z" fill="#469BC7" stroke="#469BC7"/>
</svg>
