<svg version="1.1" id="Layer_1" xmlns="http://www.w3.org/2000/svg" xmlns:xlink="http://www.w3.org/1999/xlink" x="0px" y="0px"
	 width="100%" viewBox="0 0 672 672" enable-background="new 0 0 672 672" xml:space="preserve">
<path fill="none" opacity="1.000000" stroke="none"
	d="
M363.000000,673.000000
	C242.000015,673.000000 121.500046,673.000000 1.000032,673.000000
	C1.000000,561.000061 1.000000,449.000092 1.000000,337.000122
	C1.000000,225.000137 1.000000,113.000160 1.000000,1.000139
	C224.999893,1.000093 448.999786,1.000093 672.999756,1.000046
	C672.999878,224.999863 672.999878,448.999725 672.999939,672.999756
	C569.833313,673.000000 466.666656,673.000000 363.000000,673.000000
M340.928192,243.901993
	C340.928192,243.901993 340.854401,243.805405 340.326813,243.954163
	C340.156342,244.262604 339.985870,244.571045 339.783020,244.840286
	C339.783020,244.840286 339.737244,244.818115 339.085144,245.002533
	C333.124054,251.189896 326.717163,257.018738 321.354218,263.687134
	C317.603790,268.350464 314.078644,271.350006 307.744629,270.235199
	C299.731781,268.824921 293.644714,272.536499 289.017181,278.718323
	C278.016998,293.413208 287.771301,313.467255 304.565704,315.091888
	C306.122437,315.242432 308.340332,316.574829 308.875793,317.910065
	C311.515656,324.492767 313.691742,331.261444 316.023071,338.756866
	C317.030121,342.385071 317.528687,346.269348 319.190002,349.568054
	C320.788330,352.741699 323.589508,355.309570 325.937744,358.909210
	C326.406158,362.026764 325.770691,366.251312 327.564331,368.039856
	C331.773987,372.237518 333.652802,377.701294 337.083862,382.212280
	C339.900757,385.915741 340.343689,391.624176 346.438812,393.208984
	C346.624817,393.473022 346.810852,393.737091 346.977875,394.782135
	C350.417664,401.601593 353.856384,408.421539 357.304688,415.236664
	C357.372772,415.371216 357.549225,415.454254 357.681763,415.552338
	C361.950500,418.708954 362.062531,420.691101 358.531006,425.018005
	C356.571747,427.418518 354.886047,430.041382 353.058136,432.550262
	C350.109772,436.596985 347.961548,442.223724 343.979462,444.264862
	C339.130890,446.750183 339.737946,450.218048 338.683197,454.056274
	C338.683197,454.056274 338.340759,454.183075 337.595978,454.112183
	C334.803925,456.610016 332.123474,459.248077 329.196869,461.576782
	C322.955994,466.542725 318.180054,473.777100 309.266418,474.698975
	C309.154236,474.710602 309.065521,474.949280 308.484650,475.113983
	C308.484650,475.113983 308.002472,475.104126 307.556580,474.736328
	C307.380493,474.658630 307.204407,474.580933 306.735199,473.820129
	C306.153595,473.556915 305.592407,473.130219 304.987366,473.054626
	C292.622223,471.509644 279.863922,484.306610 284.291962,498.866882
	C289.108521,514.704590 301.820343,516.351807 314.269684,512.216675
	C315.431061,511.830933 316.172607,510.181213 317.787537,509.054993
	C321.221588,510.020508 324.655640,510.986023 328.532837,512.031921
	C328.532837,512.031921 328.968323,512.146912 329.071655,512.856140
	C330.500214,514.536011 331.671631,516.590820 333.426788,517.794373
	C335.328522,519.098450 337.915436,519.361389 339.951569,520.520813
	C343.472595,522.525879 346.694183,525.061340 350.233643,527.028442
	C354.729462,529.526978 359.356842,531.818787 364.070465,533.871399
	C365.062469,534.303406 366.674652,533.311279 368.662598,533.048279
	C369.106079,533.038757 369.549561,533.029236 370.033752,533.411316
	C370.033752,533.411316 370.081665,533.802063 370.182892,534.321411
	C370.418152,534.577759 370.653412,534.834106 371.071899,535.767090
	C371.394897,536.124268 371.651367,536.605652 372.050995,536.819763
	C376.807800,539.367188 381.641205,541.293945 381.427429,548.496460
	C381.345459,551.258301 385.081238,554.133545 387.678650,557.260193
	C395.063293,568.314087 409.889984,567.286255 417.267487,559.603088
	C424.647644,551.917114 424.104889,538.863892 415.834717,531.332275
	C415.777679,530.860596 415.720642,530.388977 416.100861,529.373840
	C417.468811,527.302979 418.836792,525.232117 420.087219,523.011536
	C420.087219,523.011536 420.166687,523.184570 420.774261,522.981628
	C421.406738,521.962646 422.039215,520.943604 422.866669,519.837402
	C422.866669,519.837402 422.909302,519.628174 423.542084,519.508911
	C424.724640,518.345398 425.907196,517.181885 427.527466,515.683350
	C428.012177,515.420654 428.496887,515.158020 429.613190,514.785950
	C430.755768,513.867004 431.898376,512.948120 432.999664,512.000000
	C432.999664,512.000000 433.025665,512.043640 433.729980,511.923248
	C441.473816,508.886322 449.217651,505.849426 457.621857,502.943817
	C458.066589,502.902924 458.511292,502.862030 459.749390,503.020721
	C460.831421,502.981201 461.913483,502.941681 463.767059,503.035553
	C465.779449,503.691833 467.746979,504.627869 469.811523,504.959167
	C483.779297,507.200714 497.705048,507.167419 511.292389,502.842743
	C514.181030,501.923279 516.554871,499.386169 519.646484,497.392120
	C519.759216,497.259705 519.871887,497.127319 520.642395,496.771545
	C521.531433,495.285950 522.420471,493.800385 523.311340,492.198486
	C523.311340,492.198486 523.206726,492.147430 523.830750,491.872803
	C524.180298,490.577850 524.529846,489.282898 525.002747,487.553925
	C525.002747,487.553925 525.028748,487.103455 525.652710,486.655457
	C526.025940,479.988831 526.441833,473.324219 526.756958,466.654846
	C526.955017,462.463226 527.001770,458.264465 527.022339,454.001556
	C527.022339,454.001556 527.050903,454.113617 527.558899,453.934875
	C527.735352,453.634399 527.911865,453.333954 527.999878,453.008698
	C527.999878,453.008698 528.053284,453.083618 528.664917,452.798523
	C536.398376,447.389740 539.145386,440.410767 535.653137,431.299255
	C535.263000,430.281342 535.393982,428.434235 536.071350,427.732910
	C543.662781,419.873474 542.182922,411.066071 538.576721,402.298431
	C537.048706,398.583435 537.009521,395.770325 540.666260,392.735962
	C545.892273,390.111877 551.375366,387.881165 556.238342,384.701782
	C558.760559,383.052704 561.059265,379.991394 561.938965,377.104858
	C564.389343,369.064667 559.070984,363.319733 554.611389,356.965759
	C554.611389,356.965759 554.141907,356.805756 554.187317,356.919434
	C554.187317,356.919434 554.200073,356.797729 554.023804,356.289093
	C553.734375,356.088440 553.445007,355.887756 552.835083,355.102234
	C551.941162,354.322540 551.047180,353.542847 550.114441,352.861572
	C550.114441,352.861572 550.218994,352.845795 549.988098,352.201721
	C547.035400,348.739227 544.082764,345.276733 541.086853,341.915436
	C541.086853,341.915436 541.196655,341.922577 541.030212,341.375641
	C540.718140,341.176971 540.406067,340.978333 540.119080,340.910370
	C540.119080,340.910370 540.235840,340.846466 540.138489,340.187439
	C539.123108,339.076477 538.107788,337.965546 537.060547,336.942322
	C537.060547,336.942322 537.153687,336.948914 536.963928,336.424713
	C536.662476,336.226685 536.360962,336.028625 536.053101,335.949402
	C536.053101,335.949402 536.170959,335.932861 535.997070,335.365997
	C535.665283,335.219696 535.333435,335.073395 534.508667,334.467621
	C532.404541,331.522797 530.300354,328.578003 528.340637,325.030212
	C527.723145,323.569061 527.300720,321.982452 526.455505,320.667694
	C521.980713,313.707397 518.499512,306.551819 520.815247,297.906281
	C520.960571,297.363800 520.512512,296.662415 520.764954,295.570282
	C520.771118,295.360626 520.777344,295.150940 521.003357,294.131592
	C521.351501,291.765015 521.572998,289.371216 522.075073,287.037781
	C523.015381,282.666992 524.118286,278.331207 525.740479,273.623505
	C529.339172,268.425537 527.849670,262.426178 528.077271,256.783661
	C528.166992,254.558990 526.217957,252.252029 525.070190,249.327072
	C525.056580,248.882095 525.043030,248.437134 525.498718,247.621582
	C525.505676,245.690292 526.028687,243.578339 525.427246,241.860046
	C523.227112,235.574707 520.908875,229.303802 518.152954,223.246841
	C514.819580,215.920731 511.049591,208.790100 507.360901,201.630325
	C505.719116,198.443695 502.774231,195.552658 502.265045,192.243683
	C501.438354,186.871368 498.606995,185.709793 493.589966,185.839096
	C493.428192,185.788452 493.266388,185.737793 493.003937,185.282578
	C492.835175,185.026321 492.597443,184.903473 492.046783,184.361557
	C491.732574,184.122147 491.418335,183.882751 490.827820,183.055847
	C476.011719,166.163986 458.375092,153.367737 436.427155,145.529709
	C434.449036,144.811844 432.518127,143.896805 430.484680,143.409973
	C421.334869,141.219421 412.155914,139.150375 402.310822,136.826187
	C398.244537,136.319366 394.187042,135.475082 390.110291,135.368362
	C377.379700,135.035065 364.641815,134.980576 351.300659,134.617493
	C350.673828,134.707947 350.046997,134.798386 349.100647,134.383865
	C348.735443,134.271454 348.370209,134.159042 347.526733,133.552444
	C346.704620,132.401169 345.804718,131.296890 345.075348,130.089600
	C343.059998,126.753677 341.076233,123.418953 336.607391,122.199097
	C336.042755,121.886009 335.478119,121.572929 334.240936,120.927620
	C333.497375,120.944237 332.753815,120.960854 331.330536,120.638657
	C321.429962,120.083557 316.090027,123.188225 311.888489,131.942429
	C309.356659,137.217514 311.456909,146.843750 316.222595,151.655060
	C320.482086,155.955292 329.445190,159.526428 336.296661,155.008820
	C341.370789,151.663132 344.721741,153.827682 347.781738,157.371582
	C355.940277,166.820206 363.894104,176.445587 372.026276,186.710693
	C373.313599,189.674667 377.625305,191.694885 374.924561,195.979553
	C374.924561,195.979553 374.960663,195.916153 374.409943,196.004486
	C374.292023,196.338104 374.174072,196.671722 373.578583,197.477997
	C371.721619,199.756638 369.864655,202.035278 367.192841,204.235489
	C361.152954,203.875092 355.113037,203.514694 348.453949,202.821655
	C347.758148,202.826523 347.062347,202.831390 345.848633,202.236237
	C339.449951,201.974915 332.948944,200.911301 326.685486,201.710190
	C321.816071,202.331284 318.875732,200.909256 315.811584,197.721390
	C309.396210,191.046890 298.661713,191.914215 293.474396,199.539047
	C290.160095,204.410767 289.449127,209.870468 292.340637,215.103760
	C295.019073,219.951477 298.514526,223.657730 305.155640,223.088501
	C309.930725,222.679199 313.710876,221.118942 317.679352,217.709854
	C318.180939,216.156937 318.682526,214.604019 319.832336,212.750259
	C322.396942,212.005554 324.961548,211.260834 327.986908,210.623993
	C327.986908,210.623993 328.464417,210.648254 328.464417,210.648254
	C328.464417,210.648254 328.939606,210.594910 329.709167,210.891144
	C334.446899,210.828278 339.184631,210.765411 344.860748,210.850769
	C348.089264,210.855240 351.317810,210.859711 354.413635,211.028656
	C354.413635,211.028656 354.587616,211.119858 354.587616,211.119858
	C354.587616,211.119858 354.541901,210.863556 355.421478,210.998184
	C357.364410,211.339493 359.301971,211.920929 361.251526,211.964188
	C363.975739,212.024658 366.696259,211.650925 367.475433,215.276688
	C368.168457,218.501404 368.222046,221.139343 365.053711,223.593353
	C357.142883,229.720551 349.585052,236.303482 341.369812,242.932373
	C341.183563,243.244736 340.997314,243.557098 340.928192,243.901993
M196.871063,333.352661
	C183.146484,336.138824 177.337601,348.181885 179.136978,360.146210
	C180.854263,371.564819 194.437531,380.797363 205.431808,378.617889
	C218.329773,376.060974 227.117462,364.113037 224.734161,352.373871
	C221.925064,338.537231 210.514526,330.450684 196.871063,333.352661
M208.023621,175.441925
	C214.964523,183.450699 228.999222,182.204315 235.107681,174.418121
	C240.411926,167.657013 239.947021,160.770935 236.977692,153.487152
	C234.480225,147.360886 229.077927,145.143463 223.256332,144.504318
	C215.684280,143.672989 209.028076,146.125961 205.304352,153.283005
	C201.385559,160.814957 201.740295,168.212524 208.023621,175.441925
M291.453278,427.171936
	C298.658356,432.683044 309.191162,430.774841 314.363129,423.021423
	C319.333191,415.570679 316.690247,404.008789 309.076904,399.896057
	C301.539154,395.824188 291.988281,397.640167 287.763031,404.305176
	C282.768005,412.184570 284.668274,422.791779 291.453278,427.171936
M240.604584,238.882309
	C234.327682,236.450668 226.375381,238.529877 222.532150,243.607529
	C218.159042,249.385239 218.202911,258.377594 222.631363,263.944183
	C226.419174,268.705475 234.562592,270.874512 241.163193,268.880249
	C246.081253,267.394348 250.536194,261.624664 250.908737,256.258636
	C251.525269,247.377823 248.827286,242.549377 240.604584,238.882309
M98.829651,234.464706
	C101.820076,245.203857 109.087440,251.637375 119.880424,252.812439
	C129.740097,253.885895 137.894745,249.908615 143.312881,241.035797
	C148.004044,233.353470 147.731094,221.205704 142.369141,214.238678
	C136.039581,206.014404 124.186775,201.527847 115.457809,204.565292
	C102.595329,209.041138 96.315147,220.351410 98.829651,234.464706
z"/>
<path fill="none" opacity="1.000000" stroke="none"
	d="
M308.002472,475.104126
	C308.002472,475.104126 308.484650,475.113983 308.841370,475.318909
	C309.450134,475.743988 309.721893,475.936249 310.168488,476.324463
	C310.664642,476.656158 311.005615,476.764069 311.510956,476.861389
	C311.675293,476.850800 311.977814,476.980988 312.124054,477.224060
	C312.613556,477.605804 312.956818,477.744507 313.473938,477.865875
	C313.647797,477.848541 313.988495,477.926239 314.130005,478.167297
	C314.851807,478.244659 315.432098,478.080933 316.275696,477.797302
	C317.314331,477.105255 318.089569,476.533112 319.117554,475.875946
	C319.563568,475.503540 319.756836,475.216156 319.969788,474.965088
	C319.989441,475.001434 319.925842,474.948547 320.167969,474.861023
	C320.589142,474.490692 320.768188,474.207855 320.971100,473.960449
	C320.994934,473.995911 320.924377,473.947754 321.166443,473.858459
	C321.587250,473.484955 321.765991,473.200745 321.968262,472.954346
	C321.991791,472.992126 321.916321,472.944885 322.159424,472.857300
	C322.583099,472.486084 322.763611,472.202454 322.970703,471.955505
	C322.997253,471.992157 322.921814,471.942139 323.162170,471.866425
	C323.609833,471.533936 323.817139,471.277161 324.183624,470.960022
	C324.342804,470.899658 324.683136,470.908295 324.990967,470.815125
	C325.540558,470.159058 325.782288,469.596161 326.010132,469.019043
	C325.996277,469.004761 326.034088,469.014832 326.255798,468.902069
	C326.754181,468.574310 326.918549,468.293549 326.984985,467.972687
	C326.999359,467.998383 326.947083,467.971405 327.186981,467.879333
	C327.608307,467.505402 327.789764,467.223541 327.984436,466.969788
	C327.997681,466.997894 327.941406,466.971588 328.181458,466.877350
	C328.598969,466.498077 328.776459,466.213043 328.972839,465.962708
	C328.991699,465.997406 328.925507,465.954315 329.168396,465.864594
	C329.593140,465.490906 329.774963,465.206940 329.975098,464.957184
	C329.993439,464.991394 329.923889,464.956909 330.167389,464.865967
	C330.592499,464.489410 330.774109,464.203827 330.972351,463.953827
	C330.988983,463.989410 330.917450,463.956818 331.161255,463.861206
	C331.579010,463.472748 331.752960,463.179901 331.950134,462.930176
	C331.973358,462.973297 331.884857,462.931305 332.144165,462.829895
	C332.575623,462.410431 332.747742,462.092407 333.021729,461.585144
	C333.316040,461.169281 333.556671,461.020630 334.113525,460.848145
	C334.562744,460.420990 334.743896,460.095612 334.935242,459.584351
	C334.945465,459.398438 335.037506,459.037598 335.261841,458.909668
	C335.670349,458.495483 335.854523,458.209167 336.316223,457.755920
	C337.176086,456.453644 337.758423,455.318359 338.340759,454.183075
	C338.340759,454.183075 338.683197,454.056274 339.140442,453.850677
	C347.703979,443.106995 355.911774,432.643555 363.787445,421.935883
	C364.767151,420.603882 363.985565,417.976410 364.008453,415.585938
	C363.028198,414.472107 362.059540,413.721558 361.057617,412.983459
	C361.024353,412.995941 361.020660,412.924957 361.021179,412.551331
	C360.320740,411.133545 359.619781,410.089417 358.951233,409.021362
	C358.983612,408.997467 358.949493,409.070374 358.964233,408.712830
	C357.960480,407.244720 356.942017,406.134094 355.957855,405.014313
	C355.992157,405.005127 355.955170,405.065735 355.969086,404.695374
	C354.984100,403.219849 353.985199,402.114685 352.993164,401.004761
	C353.000000,401.000000 352.989685,401.012085 352.995972,400.627106
	C351.977264,398.840790 350.952271,397.439453 349.957886,396.018433
	C349.988495,395.998718 349.958527,396.065094 349.973969,395.680786
	C349.885559,394.484131 350.026428,393.524414 349.639709,392.882507
	C346.095093,386.999054 342.542206,381.116394 338.788483,375.366150
	C337.896332,373.999451 336.242432,373.129974 334.966644,372.015137
	C334.994385,371.998444 334.964355,372.055786 334.973785,371.693848
	C334.306946,370.562195 333.630676,369.792511 332.973938,369.008636
	C332.993469,368.994446 332.975311,369.038849 332.986603,368.646088
	C332.793213,365.427795 332.597351,362.596497 328.709595,361.838074
	C328.304382,361.122650 328.134949,360.576996 328.172791,359.804138
	C327.547668,358.061859 326.715271,356.546722 325.667603,354.924316
	C325.202271,354.591278 325.058289,354.311035 325.019287,353.572968
	C324.662109,351.593750 324.510345,349.936005 323.917450,348.454926
	C319.316772,336.962555 314.631073,325.504242 310.343811,314.017426
	C312.812561,313.004883 314.909119,312.010315 317.001892,311.467773
	C317.000122,313.882599 316.537415,315.994995 317.110016,317.774170
	C318.034058,320.645538 319.639893,323.297485 320.972778,326.386169
	C321.651978,327.827911 322.316132,328.925568 323.129517,330.289673
	C323.534912,331.308624 323.791016,332.061157 324.117950,333.068787
	C324.445343,333.555939 324.701904,333.787994 325.019714,334.202759
	C325.080933,334.385437 325.072876,334.770721 325.064148,335.153412
	C325.071198,335.790771 325.086945,336.045471 325.326599,336.546021
	C331.147827,347.327209 336.835266,357.815918 342.320801,368.409180
	C349.978149,383.196503 359.270691,396.855682 370.114929,409.723877
	C370.382904,409.889374 370.632599,409.820251 370.940247,409.792236
	C370.998199,409.833313 370.924438,409.954712 371.190674,409.816101
	C371.608826,409.314911 371.760773,408.952332 371.881287,408.452454
	C371.849884,408.315094 371.954620,408.053528 372.219482,407.895264
	C372.626099,407.359161 372.767883,406.981262 373.028564,406.396240
	C373.435303,405.809509 373.723114,405.429962 374.262695,404.883118
	C374.647125,404.341644 374.779755,403.967499 374.904236,403.447144
	C374.896057,403.300964 375.041443,403.046814 375.274872,402.897797
	C375.651306,402.415497 375.794342,402.082214 376.080566,401.460724
	C377.397919,399.436401 378.572021,397.700287 380.065704,395.805176
	C380.565399,394.745758 380.745544,393.845428 380.927277,392.932373
	C380.928894,392.919708 380.905121,392.909943 381.270386,392.936218
	C382.882721,392.779175 384.129761,392.595825 385.376770,392.412476
	C386.302368,394.317993 380.923767,397.818054 386.987488,398.252380
	C387.011047,398.717072 387.013367,398.903137 387.040619,399.311340
	C387.065521,399.533478 386.970520,399.970276 386.715454,400.138397
	C386.322021,400.883240 386.183624,401.459930 386.029175,402.024963
	C386.013153,402.013245 386.051544,402.043640 385.695007,402.074036
	C384.911041,403.099060 384.483643,404.093689 384.042419,405.052734
	C384.028625,405.017181 384.104950,405.016144 383.805908,405.197815
	C383.338989,406.278290 383.171173,407.177124 382.906555,408.299866
	C382.588654,408.786255 382.307617,408.937317 381.622040,409.041809
	C380.515503,410.733459 379.753632,412.360352 378.995880,413.994202
	C379.000000,414.001221 378.985321,413.992065 378.634033,414.052246
	C377.876038,415.117767 377.469391,416.123108 377.073425,417.497986
	C377.940887,419.544830 378.561798,421.406372 379.700317,422.863525
	C382.677338,426.673676 385.880646,430.307037 388.994446,434.346069
	C388.987915,435.128571 388.980652,435.575897 388.608032,435.974915
	C386.962555,435.683502 385.682495,435.440338 384.402405,435.197174
	C384.015442,435.570648 383.628510,435.944122 383.241547,436.317596
	C388.998566,439.987579 390.128998,445.123718 388.754883,450.986664
	C388.338501,451.007477 388.171936,451.016022 387.677063,450.976624
	C386.866302,450.523010 386.383881,450.117310 385.881409,449.349487
	C387.472076,444.089050 384.592377,441.343445 380.995056,438.687256
	C380.954041,438.452301 380.828522,437.992065 380.827972,437.741394
	C380.549622,437.333374 380.271820,437.175995 379.859802,436.722717
	C378.152832,434.950592 376.580139,433.474304 374.967041,431.642883
	C373.667053,430.250763 372.407440,429.213715 371.147827,428.176697
	C370.533173,429.128815 369.918518,430.080933 369.142456,431.304077
	C368.317780,432.374451 367.654541,433.173828 366.781433,434.061340
	C366.292938,434.360596 366.206543,434.632721 366.143921,435.278168
	C358.090057,445.246094 350.301941,454.983521 342.282776,464.526794
	C337.436981,470.293640 332.232605,475.759186 327.037933,481.528351
	C328.512665,481.972992 329.744415,482.344360 331.326050,482.624115
	C334.418701,481.272705 337.161438,480.012939 340.275238,478.709595
	C341.800476,478.288391 342.954681,477.910767 344.452148,477.621735
	C346.099640,476.976471 347.403809,476.242645 349.076538,475.593231
	C350.617310,475.245483 351.789520,474.813324 353.254761,474.483704
	C354.311096,474.040192 355.074432,473.494110 356.186096,472.866394
	C362.647583,470.095215 368.760651,467.405670 374.910889,465.138855
	C375.312164,467.716949 375.676270,469.872345 376.016357,472.386230
	C375.955292,473.461945 375.918243,474.179199 375.713531,474.944275
	C375.545868,474.992096 375.197388,475.005768 374.877319,474.990448
	C374.031586,475.278931 373.505951,475.582764 372.916473,475.952240
	C372.852661,476.017914 372.688141,475.937439 372.472168,476.012329
	C371.877747,476.315552 371.499268,476.543884 370.769104,476.890137
	C364.622711,479.754608 358.828033,482.501221 352.659302,485.196442
	C346.619537,487.115356 341.010284,489.278931 335.259644,490.958496
	C333.031525,491.609253 330.483490,491.164734 328.089752,490.845825
	C328.318054,489.155548 328.537781,487.838623 328.822296,486.133606
	C326.398834,486.755676 324.678894,487.197174 322.549133,487.743835
	C322.549133,484.833710 322.549133,482.156067 322.549133,480.435760
	C315.404907,480.114868 308.690094,480.182434 302.082794,479.372833
	C298.342407,478.914520 296.204834,480.188538 294.029968,482.795837
	C292.653381,484.446167 290.720154,485.632172 289.026428,486.631775
	C288.996521,485.447021 288.976715,484.656891 289.036499,483.663330
	C289.279175,483.205933 289.500580,483.022247 290.152161,482.911438
	C291.319061,481.862274 292.114075,480.810486 292.988403,479.572205
	C293.227631,479.153900 293.441742,478.995270 293.992004,478.856903
	C294.525543,478.528473 294.777100,478.252899 295.189728,477.920166
	C295.350800,477.862976 295.692596,477.862671 296.117065,477.901642
	C300.361877,476.995117 304.182159,476.049622 308.002472,475.104126
z"/>
<path fill="#38bdf8" opacity="1.000000" stroke="none"
	d="
M197.259644,333.265472
	C210.514526,330.450684 221.925064,338.537231 224.734161,352.373871
	C227.117462,364.113037 218.329773,376.060974 205.431808,378.617889
	C194.437531,380.797363 180.854263,371.564819 179.136978,360.146210
	C177.337601,348.181885 183.146484,336.138824 197.259644,333.265472
z"/>
<path fill="#38bdf8" opacity="1.000000" stroke="none"
	d="
M458.956024,502.821106
	C458.511292,502.862030 458.066589,502.902924 457.181335,502.677246
	C456.531464,502.173981 456.274506,502.013519 455.887207,501.775635
	C455.551422,501.725159 455.298370,501.828308 454.684387,502.092224
	C449.763184,503.475403 445.014618,504.253052 440.708557,506.075989
	C437.822693,507.297729 435.564636,510.002472 433.025635,512.043640
	C433.025665,512.043640 432.999664,512.000000 432.640137,511.995361
	C431.519989,511.994415 430.759369,511.998138 429.934418,511.636536
	C427.225037,510.522095 424.580048,509.772888 422.025024,508.678101
	C430.333466,503.869965 438.551910,499.407471 446.740570,494.961090
	C437.611053,488.569641 427.813080,481.710175 417.906982,474.642822
	C417.586334,474.170715 417.310699,474.045502 416.950439,474.049744
	C416.928925,474.040283 416.883575,474.027252 416.892578,473.650696
	C415.935699,470.013489 414.834930,466.785339 414.041107,463.483368
	C413.210022,460.026489 412.673859,456.498749 412.159882,452.646912
	C413.012329,449.363708 413.713715,446.435608 414.415070,443.507507
	C414.036896,443.857727 413.658722,444.207977 413.280579,444.558197
	C411.580292,442.984802 409.879974,441.411407 408.533630,439.853210
	C412.428223,440.541016 415.570129,440.119171 418.225189,437.263611
	C420.296936,435.035522 422.713379,433.127930 425.310120,431.049377
	C426.076996,430.574036 426.510345,430.127197 427.028198,429.503632
	C427.293915,429.123718 427.518494,428.998016 428.186340,428.975311
	C429.384583,428.969452 430.183014,428.938019 431.117004,429.212280
	C431.839111,430.682678 432.425659,431.847412 432.959167,433.345825
	C430.261688,436.718994 427.617279,439.758453 424.702454,442.970398
	C424.112793,443.427277 423.793579,443.711670 423.135498,444.000885
	C421.204285,445.348724 419.611908,446.691711 418.007385,448.019775
	C417.995178,448.004852 418.032806,448.011810 417.801392,448.122864
	C417.390472,448.518799 417.210938,448.803650 417.025879,449.050659
	C417.020294,449.012817 417.096680,449.009125 416.782410,449.264465
	C416.552307,452.641510 416.636444,455.763214 416.787994,459.251526
	C418.553223,461.734314 420.251038,463.850433 422.102600,466.219055
	C422.611115,466.624939 422.965942,466.778290 423.550964,467.025452
	C424.221771,467.223663 424.662323,467.328033 425.101685,467.566345
	C425.100494,467.700317 425.023682,467.957001 425.121857,468.192871
	C425.505280,468.600342 425.790527,468.771912 426.034973,468.961060
	C425.994110,468.978607 426.058502,468.917114 426.147827,469.164185
	C426.530762,469.586456 426.824371,469.761688 427.088837,469.961670
	C427.059662,469.986450 427.040375,469.912354 427.165802,470.172058
	C427.629303,470.598328 427.967377,470.764923 428.536865,470.998596
	C429.158508,471.346680 429.548737,471.627655 430.059082,472.153656
	C430.486023,472.577637 430.792847,472.756531 431.066406,472.914856
	C431.033173,472.894226 431.088226,472.838654 431.173615,473.111450
	C431.575500,473.576752 431.891968,473.769257 432.515808,474.098328
	C441.216064,479.501221 449.609009,484.767487 458.079041,490.412048
	C459.301208,491.155334 460.446320,491.520386 461.893372,491.837769
	C462.794830,491.886719 463.394257,491.983368 464.156128,492.306641
	C464.661255,492.666626 465.003967,492.800018 465.488281,492.891785
	C465.629822,492.850159 465.908295,492.947754 466.116821,493.227539
	C466.992401,493.642120 467.659454,493.776917 468.498291,493.903168
	C468.670044,493.894592 468.987579,494.026855 469.134521,494.263611
	C469.617126,494.646057 469.952728,494.791748 470.465851,494.925110
	C470.643372,494.912720 470.977814,495.034485 471.053986,495.393768
	C477.446960,497.673492 483.763763,499.593964 490.708344,501.705261
	C489.800018,502.312317 488.576599,503.801270 487.289124,503.858887
	C484.009155,504.005768 480.700562,503.514099 477.403534,503.276367
	C471.266632,502.833923 465.129852,502.390381 458.979614,502.165588
	C458.966248,502.383881 458.956024,502.821106 458.956024,502.821106
z"/>
<path fill="#38bdf8" opacity="1.000000" stroke="none"
	d="
M207.770508,175.172150
	C201.740295,168.212524 201.385559,160.814957 205.304352,153.283005
	C209.028076,146.125961 215.684280,143.672989 223.256332,144.504318
	C229.077927,145.143463 234.480225,147.360886 236.977692,153.487152
	C239.947021,160.770935 240.411926,167.657013 235.107681,174.418121
	C228.999222,182.204315 214.964523,183.450699 207.770508,175.172150
z"/>
<path fill="#38bdf8" opacity="1.000000" stroke="none"
	d="
M525.028687,487.103455
	C525.028748,487.103455 525.002747,487.553925 524.699036,487.887085
	C523.928589,488.481293 523.461853,488.742371 522.726318,488.786072
	C521.430847,486.549438 520.749817,484.043488 518.656433,488.126953
	C517.934204,489.535797 515.417297,490.024628 513.889893,490.622253
	C514.340332,489.206482 514.620911,488.102173 515.180664,486.761108
	C516.299683,483.608795 517.461243,480.743256 517.923279,477.769073
	C519.869080,465.243256 511.980316,455.493500 508.010590,444.706696
	C505.133545,436.889099 500.661224,429.658600 496.929596,421.778961
	C495.695526,417.787079 495.596100,413.419769 490.904236,412.046143
	C490.945557,412.003357 490.903778,412.114716 490.935669,411.741455
	C490.255157,410.619904 489.542755,409.871582 488.843689,409.068481
	C488.856995,409.013733 488.872375,409.125366 488.914917,408.762573
	C488.502960,407.708496 488.048401,407.017212 487.565277,406.353302
	C487.536713,406.380707 487.457581,406.377991 487.629211,405.999542
	C486.810333,404.433105 485.819794,403.245148 484.639832,401.948242
	C484.211761,401.654663 484.047516,401.418304 483.952148,400.808563
	C483.584991,400.006775 483.223328,399.526733 482.899597,399.028809
	C482.937561,399.010925 482.925598,399.093994 482.957123,398.744537
	C482.995819,397.928131 483.002960,397.461212 483.358429,397.028015
	C484.763428,397.066620 485.820099,397.071503 486.876831,397.076355
	C486.501465,394.289001 486.126129,391.501617 485.733429,388.585175
	C487.251465,387.839691 489.124512,386.919830 491.188721,386.179993
	C491.542358,387.570801 491.704865,388.781647 491.794678,390.352539
	C491.860718,392.394135 491.495544,394.338745 492.215027,395.717163
	C500.821167,412.205780 509.621216,428.593109 518.277588,445.055786
	C519.559692,447.494171 520.879211,447.623566 523.101746,445.941772
	C523.953186,445.585266 524.466919,445.222382 524.988953,444.899475
	C524.997192,444.939484 524.915649,444.943726 525.186890,444.969574
	C525.639038,444.996155 525.819946,444.996887 526.438782,444.998474
	C528.923035,445.007050 530.969360,445.014740 533.003662,445.388000
	C531.345581,448.196930 529.699463,450.640289 528.053284,453.083618
	C528.053284,453.083618 527.999878,453.008698 527.797241,453.119324
	C527.413391,453.524536 527.232178,453.819092 527.050903,454.113617
	C527.050903,454.113617 527.022339,454.001556 526.660522,454.089172
	C525.864136,455.807343 525.073181,457.433685 525.053955,459.069153
	C524.943909,468.412720 525.017517,477.758453 525.028687,487.103455
z"/>
<path fill="#38bdf8" opacity="1.000000" stroke="none"
	d="
M291.102356,427.034485
	C284.668274,422.791779 282.768005,412.184570 287.763031,404.305176
	C291.988281,397.640167 301.539154,395.824188 309.076904,399.896057
	C316.690247,404.008789 319.333191,415.570679 314.363129,423.021423
	C309.191162,430.774841 298.658356,432.683044 291.102356,427.034485
z"/>
<path fill="#38bdf8" opacity="1.000000" stroke="none"
	d="
M240.966705,238.998047
	C248.827286,242.549377 251.525269,247.377823 250.908737,256.258636
	C250.536194,261.624664 246.081253,267.394348 241.163193,268.880249
	C234.562592,270.874512 226.419174,268.705475 222.631363,263.944183
	C218.202911,258.377594 218.159042,249.385239 222.532150,243.607529
	C226.375381,238.529877 234.327682,236.450668 240.966705,238.998047
z"/>
<path fill="#38bdf8" opacity="1.000000" stroke="none"
	d="
M98.752747,234.050934
	C96.315147,220.351410 102.595329,209.041138 115.457809,204.565292
	C124.186775,201.527847 136.039581,206.014404 142.369141,214.238678
	C147.731094,221.205704 148.004044,233.353470 143.312881,241.035797
	C137.894745,249.908615 129.740097,253.885895 119.880424,252.812439
	C109.087440,251.637375 101.820076,245.203857 98.752747,234.050934
M129.579834,207.757919
	C124.036034,205.571564 118.683456,206.122803 113.218781,208.367065
	C102.299568,212.851471 96.304543,226.797379 102.100868,237.167450
	C109.669746,250.708771 126.191299,257.454254 139.326492,242.197235
	C149.897583,229.918503 144.487137,213.807037 129.579834,207.757919
z"/>
<path fill="#38bdf8" opacity="1.000000" stroke="none"
	d="
M129.965485,207.864319
	C144.487137,213.807037 149.897583,229.918503 139.326492,242.197235
	C126.191299,257.454254 109.669746,250.708771 102.100868,237.167450
	C96.304543,226.797379 102.299568,212.851471 113.218781,208.367065
	C118.683456,206.122803 124.036034,205.571564 129.965485,207.864319
z"/>
<path fill="#38bdf8" opacity="1.000000" stroke="none"
	d="
M437.006500,145.990555
	C458.375092,153.367737 476.011719,166.163986 491.054993,183.648529
	C491.618378,184.465469 491.954559,184.689743 492.290771,184.914001
	C492.597443,184.903473 492.835175,185.026321 493.026459,185.868729
	C494.036194,188.631744 495.023376,190.808624 495.591370,192.989044
	C489.485138,193.114899 485.684021,197.762604 486.580383,203.018219
	C485.639404,203.229568 485.115051,203.411331 484.569336,203.539917
	C484.547974,203.486710 484.447510,203.431503 484.585815,203.068787
	C482.798309,202.163391 480.872498,201.620697 478.623352,200.934387
	C477.200989,200.567993 476.101990,200.345215 474.633728,200.049133
	C472.841217,199.686813 471.417999,199.397812 469.758118,198.991058
	C469.341064,198.582733 469.160645,198.292160 469.035461,197.667587
	C469.868896,196.968811 470.652588,196.615433 471.423798,196.236588
	C472.570618,195.673218 473.708618,195.091873 474.850342,194.518188
	C474.003906,193.688538 473.174591,192.840424 472.305756,192.034912
	C471.561615,191.344955 470.772247,190.703796 470.404846,189.957443
	C471.898743,189.907669 472.990753,189.941528 474.215668,190.224182
	C474.879333,190.540359 475.410034,190.607742 476.208069,190.770142
	C476.659821,190.906677 476.844330,190.948212 477.211426,191.292557
	C479.320312,192.353394 481.197449,193.312790 483.190094,193.798264
	C484.509674,194.119736 485.994751,193.761826 487.405762,193.708038
	C486.921051,192.346146 486.436310,190.984268 485.838318,189.415527
	C485.725067,189.208679 485.281769,189.047668 485.167389,188.765396
	C484.724213,188.258194 484.395416,188.033264 483.938416,187.492233
	C481.569580,185.370438 479.191742,183.707809 477.122498,181.723389
	C474.441040,179.151779 472.357819,175.834259 469.395233,173.701675
	C461.777557,168.218124 453.816956,163.210907 446.041870,157.688110
	C448.457367,157.362885 450.824341,157.362885 453.191345,157.362885
	C453.261292,156.935699 453.331268,156.508499 453.401215,156.081314
	C452.169708,155.408539 450.994843,154.309479 449.696838,154.136871
	C444.135956,153.397446 440.998260,149.061493 437.006500,145.990555
z"/>
<path fill="#38bdf8" opacity="1.000000" stroke="none"
	d="
M373.027863,141.798431
	C376.421051,141.529572 379.825775,141.358688 383.203674,140.960190
	C385.806793,140.653107 388.376160,140.060013 390.960571,139.594101
	C390.944824,138.934509 390.929108,138.274918 390.913391,137.615326
	C386.370819,137.079346 381.840576,136.276718 377.282959,136.065582
	C369.020508,135.682816 360.741760,135.652451 352.188293,135.146515
	C364.641815,134.980576 377.379700,135.035065 390.110291,135.368362
	C394.187042,135.475082 398.244537,136.319366 402.733337,137.313354
	C404.633911,138.209778 406.106506,138.640198 407.591156,139.024017
	C411.165955,139.948288 415.339478,139.684494 418.088837,144.827484
	C415.380402,144.624054 413.580566,144.347488 411.788879,144.392502
	C409.846375,144.441330 407.911469,144.789749 405.543579,144.974030
	C396.479614,144.277618 387.841614,143.657196 379.213531,142.921005
	C377.134857,142.743652 375.088867,142.182877 373.027863,141.798431
z"/>
<path fill="#38bdf8" opacity="1.000000" stroke="none"
	d="
M384.981659,542.372864
	C384.971985,541.951599 384.997864,541.754761 385.064514,541.262512
	C389.654053,542.464111 390.831757,545.736023 388.275513,550.789307
	C387.214996,548.502686 386.442627,546.001892 385.403442,543.268311
	C385.136627,543.035583 385.017212,542.597229 384.981659,542.372864
z"/>
<path fill="#38bdf8" opacity="1.000000" stroke="none"
	d="
M414.021576,533.005737
	C414.478699,532.750732 414.935822,532.495667 415.635559,532.142151
	C424.104889,538.863892 424.647644,551.917114 417.267487,559.603088
	C409.889984,567.286255 395.063293,568.314087 387.329224,556.721436
	C386.365417,551.800293 385.751007,547.417969 385.403442,543.268311
	C386.442627,546.001892 387.214996,548.502686 387.992981,551.369141
	C391.049988,559.837341 401.281036,564.694702 409.151947,561.777527
	C413.092834,560.316956 418.708893,551.818665 419.087646,547.671631
	C419.613586,541.913208 417.012146,537.440430 414.021576,533.005737
z"/>
<path fill="#38bdf8" opacity="1.000000" stroke="none"
	d="
M310.343811,314.017426
	C307.493896,313.260925 305.050140,312.345795 302.532227,311.737488
	C293.854614,309.641174 285.547699,298.829254 287.271942,290.044525
	C288.111786,285.765472 291.247009,281.568054 294.281738,278.172516
	C299.210815,272.657440 305.844482,272.362640 312.863190,273.593628
	C315.175201,273.999115 317.812042,272.552582 319.436707,272.161041
	C321.524261,276.998962 324.341797,281.774628 325.558899,286.928223
	C326.462189,290.752991 325.287750,295.068420 324.683502,299.635925
	C322.547424,303.398590 320.766632,306.690643 318.992920,309.991364
	C319.000000,310.000000 318.983490,309.986725 318.687897,310.010193
	C317.932617,310.357452 317.472931,310.681213 317.007690,311.002991
	C317.002167,311.001007 317.005707,311.015747 317.005707,311.015747
	C314.909119,312.010315 312.812561,313.004883 310.343811,314.017426
z"/>
<path fill="#38bdf8" opacity="1.000000" stroke="none"
	d="
M295.731293,215.117798
	C290.861481,205.831619 294.318451,202.358139 301.023468,198.034286
	C304.209869,195.979477 307.307098,197.377670 309.988953,200.210052
	C312.298737,202.649551 315.595398,204.154602 318.390656,206.029144
	C317.050751,208.763794 315.664215,211.695663 314.189697,214.582611
	C310.778503,221.261246 302.940521,221.611450 295.731293,215.117798
z"/>
<path fill="#38bdf8" opacity="1.000000" stroke="none"
	d="
M341.022430,130.982819
	C341.352753,131.760742 341.683105,132.538666 341.649933,133.700073
	C335.663818,137.297226 341.628448,140.170532 341.549591,143.514923
	C340.544586,143.514923 339.530090,143.514923 339.260223,143.514923
	C339.866913,145.785828 340.429199,147.890472 340.991455,149.995117
	C338.061951,151.118561 335.142944,152.270248 332.200623,153.359039
	C327.380463,155.142700 321.348633,153.341766 317.500000,148.974030
	C313.586639,144.532806 311.134796,139.987915 314.388519,133.834488
	C318.565430,125.935066 321.704468,123.607452 328.693451,125.228775
	C332.504425,131.977142 334.832886,132.995071 341.022430,130.982819
z"/>
<path fill="#38bdf8" opacity="1.000000" stroke="none"
	d="
M341.360321,150.002487
	C340.429199,147.890472 339.866913,145.785828 339.260223,143.514923
	C339.530090,143.514923 340.544586,143.514923 341.549591,143.514923
	C341.628448,140.170532 335.663818,137.297226 341.654175,134.038116
	C346.573456,135.920959 351.062927,138.017487 355.695190,139.727005
	C359.768951,141.230438 361.852081,143.913391 361.617310,148.584839
	C360.512024,148.958572 359.778076,148.942001 358.982544,148.608887
	C357.944366,148.203049 356.967773,148.113724 355.633209,148.026306
	C350.231598,148.989059 353.889709,152.701157 353.071625,154.998016
	C351.638275,154.757660 350.054962,154.823944 348.803406,154.211853
	C346.347687,153.010849 344.076660,151.432220 341.360321,150.002487
z"/>
</svg>
